<?xml version="1.0" encoding="UTF-8" standalone="no"?>
<!DOCTYPE svg  PUBLIC '-//W3C//DTD SVG 1.1//EN'  'http://www.w3.org/Graphics/SVG/1.1/DTD/svg11.dtd'>
<svg version="1.1" xmlns="http://www.w3.org/2000/svg">
<defs>
<font id="SimplonMono-Bold" horiz-adv-x="608">
<font-face font-family="SimplonMono-Bold" underline-thickness="100" stemh="119" ascent="806" panose-1="2 11 8 9 3 0 0 0 0 0" units-per-em="1000" font-weight="700" cap-height="700" x-height="516" descent="-194" underline-position="-100" unicode-range="U+0020-00FE" stemv="132" bbox="-12 -194 629 880"/>
<missing-glyph/>
<glyph glyph-name="space" unicode=" "/>
<glyph glyph-name="exclam" unicode="!" d="M370 700v-470h-132v470h132zM224 0v160h160v-160h-160z"/>
<glyph glyph-name="quotedbl" unicode='&quot;' d="M452 476h-53v224h53v-224zM209 476h-53v224h53v-224z"/>
<glyph glyph-name="numbersign" unicode="#" d="M516 216h-93l-53 -216h-47l53 216h-211l-53 -216h-47l53 216h-71v45h82l44 178h-81v45h92l54 216h47l-54 -216h211l54 216h47l-54 -216h72v-45h-83l-44 -178h82v-45zM220 439l-44 -178h211l44 178h-211z"/>
<glyph glyph-name="dollar" unicode="$" d="M280 -100v91c-130 9 -211 98 -217 230h132c2 -59 40 -112 107 -112c59 0 98 29 98 77c0 44 -26 71 -74 87l-86 29c-105 35 -168 106 -168 209c0 122 93 191 208 198v91h43v-91c113 -9 185 -88 199 -200h-132c-8 53 -44 82 -88 82c-58 0 -98 -26 -98 -80 c0 -41 35 -66 72 -79l90 -31c122 -42 166 -117 166 -215c0 -110 -80 -188 -209 -195v-91h-43z"/>
<glyph glyph-name="percent" unicode="%" d="M54 567c0 76 61 138 137 138s138 -62 138 -138s-62 -137 -138 -137s-137 61 -137 137zM279 132c0 76 61 138 137 138s138 -62 138 -138s-62 -137 -138 -137s-137 61 -137 137zM150 567c0 -24 16 -43 41 -43s42 19 42 43s-17 44 -42 44s-41 -20 -41 -44zM375 132 c0 -24 16 -43 41 -43s42 19 42 43s-17 44 -42 44s-41 -20 -41 -44zM71 150l434 435l32 -32l-434 -435z"/>
<glyph glyph-name="ampersand" unicode="&amp;" d="M456 368l111 -64l-76 -133l65 -113l-111 -63l-33 58c-36 -41 -94 -63 -150 -63c-121 0 -220 99 -220 220c0 76 40 144 100 184c19 12 39 22 61 28l-90 159v119h369v-119h-223l159 -280zM174 210c0 -55 32 -101 88 -101c43 0 68 28 83 63l-79 139h-4 c-56 0 -88 -46 -88 -101z"/>
<glyph glyph-name="quotesingle" unicode="&apos;" d="M330 476h-53v224h53v-224z"/>
<glyph glyph-name="parenleft" unicode="(" d="M250 11v586c0 66 21 103 107 103h118v-42h-118c-53 0 -64 -20 -64 -61v-586c0 -41 11 -61 64 -61h118v-42h-118c-86 0 -107 37 -107 103z"/>
<glyph glyph-name="parenright" unicode=")" d="M358 597v-586c0 -66 -21 -103 -107 -103h-118v42h118c53 0 64 20 64 61v586c0 41 -11 61 -64 61h-118v42h118c86 0 107 -37 107 -103z"/>
<glyph glyph-name="asterisk" unicode="*" d="M304 470l-95 -131l-37 25l96 131l-154 50l13 43l154 -50v162h45v-162l154 50l13 -43l-154 -50l96 -131l-37 -25z"/>
<glyph glyph-name="plus" unicode="+" d="M282 82v176h-176v45h176v175h45v-175h175v-45h-175v-176h-45z"/>
<glyph glyph-name="comma" unicode="," d="M204 -166l-85 85l204 203l85 -85z"/>
<glyph glyph-name="hyphen" unicode="-" d="M449 258h-290v45h290v-45z"/>
<glyph glyph-name="period" unicode="." d="M224 0v160h160v-160h-160z"/>
<glyph glyph-name="slash" unicode="/" d="M522 705l37 -26l-472 -684l-37 26z"/>
<glyph glyph-name="zero" unicode="0" d="M534 480v-260c0 -127 -103 -230 -230 -230s-230 103 -230 230v260c0 127 103 230 230 230s230 -103 230 -230zM304 109c59 0 98 49 98 103v204l-196 -196v-8c0 -54 39 -103 98 -103zM402 481v7c0 54 -39 103 -98 103s-98 -49 -98 -103v-204z"/>
<glyph glyph-name="one" unicode="1" d="M569 0h-496v119h182v408l-96 -96l-86 87l182 182h132v-581h182v-119z"/>
<glyph glyph-name="two" unicode="2" d="M236 416l-95 -90c-44 43 -65 93 -65 154c0 127 103 230 230 230s230 -103 230 -220c0 -86 -33 -135 -101 -202l-170 -169h271v-119h-460v119l275 268c43 41 53 76 53 108c0 48 -37 96 -98 96s-98 -48 -98 -106c0 -23 12 -51 28 -69z"/>
<glyph glyph-name="three" unicode="3" d="M525 220c0 -127 -83 -230 -220 -230c-147 0 -240 103 -240 230h132c0 -58 34 -111 98 -111s98 53 98 111c0 54 -39 107 -98 107v119h3c37 1 60 35 60 69c0 39 -19 76 -63 76s-63 -37 -63 -76h-132c0 108 87 195 195 195s195 -87 195 -195c0 -48 -17 -90 -46 -123 c49 -41 81 -102 81 -172z"/>
<glyph glyph-name="four" unicode="4" d="M344 705l104 -76l-252 -351h144v141h132v-141h73v-119h-73v-159h-132v159h-302v119z"/>
<glyph glyph-name="five" unicode="5" d="M217 284l-137 92l71 324h334v-119h-228l-32 -145c24 15 51 22 86 22c117 0 220 -103 220 -230v-8c0 -127 -83 -230 -220 -230c-147 0 -240 103 -240 230h132c0 -64 39 -111 98 -111s98 49 98 103v24c0 54 -39 103 -98 103c-40 0 -69 -22 -84 -55z"/>
<glyph glyph-name="six" unicode="6" d="M460 629l-128 -175c22 -4 42 -11 61 -20c76 -37 128 -116 128 -206v-8c0 -127 -103 -230 -230 -230s-230 103 -230 230v8c0 55 21 104 52 146l243 331zM389 212v24c0 54 -39 103 -98 103s-98 -49 -98 -103v-24c0 -54 39 -103 98 -103s98 49 98 103z"/>
<glyph glyph-name="seven" unicode="7" d="M77 700h454v-119l-220 -586l-120 45l203 541h-185v-111h-132v230z"/>
<glyph glyph-name="eight" unicode="8" d="M78 216c0 72 33 135 85 177c-30 33 -48 78 -48 127c0 105 84 190 189 190s190 -85 190 -190c0 -49 -19 -94 -49 -128c52 -41 85 -105 85 -176c0 -125 -101 -226 -226 -226s-226 101 -226 226zM402 220c0 59 -37 111 -98 111s-98 -52 -98 -111s37 -111 98 -111 s98 52 98 111zM240 516c0 -37 20 -74 64 -74s65 37 65 74s-21 75 -65 75s-64 -38 -64 -75z"/>
<glyph glyph-name="nine" unicode="9" d="M148 71l128 175c-22 4 -42 11 -61 20c-76 37 -128 116 -128 206v8c0 127 103 230 230 230s230 -103 230 -230v-8c0 -55 -21 -104 -52 -146l-243 -331zM219 488v-24c0 -54 39 -103 98 -103s98 49 98 103v24c0 54 -39 103 -98 103s-98 -49 -98 -103z"/>
<glyph glyph-name="colon" unicode=":" d="M224 308v160h160v-160h-160zM224 0v160h160v-160h-160z"/>
<glyph glyph-name="semicolon" unicode=";" d="M180 -166l-85 85l204 203l85 -85zM224 308v160h160v-160h-160z"/>
<glyph glyph-name="less" unicode="&lt;" d="M449 499l-239 -239l239 -239l-32 -31l-270 270l270 270z"/>
<glyph glyph-name="equal" unicode="=" d="M502 155h-396v45h396v-45zM502 350h-396v45h396v-45z"/>
<glyph glyph-name="greater" unicode="&gt;" d="M398 260l-239 239l32 31l270 -270l-270 -270l-32 31z"/>
<glyph glyph-name="question" unicode="?" d="M229 395h66c54 0 98 44 98 98s-44 98 -98 98s-98 -44 -98 -98h-132c0 127 103 217 230 217s230 -90 230 -217c0 -104 -69 -184 -164 -209v-54h-132v165zM218 0v160h160v-160h-160z"/>
<glyph glyph-name="at" unicode="@" d="M130 150v12c0 101 59 160 170 160h37v46c0 25 -12 43 -38 43s-37 -18 -37 -43v-14h-132v16c0 101 59 160 170 160c110 0 169 -59 169 -160v-308c0 -17 8 -30 28 -30c19 0 28 13 28 30v389c0 129 -80 217 -221 217s-221 -88 -221 -217v-381c0 -129 80 -217 221 -217v-42 c-168 0 -264 104 -264 259v381c0 155 96 259 264 259s264 -104 264 -259v-390c0 -41 -23 -71 -71 -71c-43 0 -65 27 -69 60c-31 -37 -76 -60 -128 -60c-111 0 -170 59 -170 160zM337 152v61h-38c-26 0 -37 -18 -37 -43v-18c0 -25 11 -43 37 -43s38 18 38 43z"/>
<glyph glyph-name="A" unicode="A" d="M382 268l-78 227l-78 -227h156zM428 141h-248l-50 -141h-140l250 700h128l250 -700h-140z"/>
<glyph glyph-name="B" unicode="B" d="M52 0v700h290c142 0 221 -80 221 -201c0 -58 -21 -109 -63 -141c49 -37 80 -91 80 -153c0 -124 -78 -205 -222 -205h-306zM186 133h176c55 0 84 28 84 77c0 50 -33 77 -84 77h-176v-154zM429 494c0 49 -33 73 -84 73h-159v-147h159c51 0 84 26 84 74z"/>
<glyph glyph-name="C" unicode="C" d="M438 234h135c-6 -147 -101 -244 -264 -244c-168 0 -264 104 -264 259v202c0 155 96 259 264 259c163 0 258 -97 264 -244h-135c-7 71 -61 111 -129 111c-73 0 -130 -45 -130 -126v-202c0 -81 57 -126 130 -126c68 0 122 39 129 111z"/>
<glyph glyph-name="D" unicode="D" d="M308 0h-264v700h264c168 0 264 -104 264 -259v-182c0 -155 -96 -259 -264 -259zM438 259v182c0 81 -57 126 -130 126h-130v-434h130c73 0 130 45 130 126z"/>
<glyph glyph-name="E" unicode="E" d="M236 567v-147h222v-133h-222v-154h292v-133h-426v700h426v-133h-292z"/>
<glyph glyph-name="F" unicode="F" d="M254 567v-147h222v-133h-222v-287h-134v700h426v-133h-292z"/>
<glyph glyph-name="G" unicode="G" d="M306 267v133h264v-151c0 -155 -96 -259 -264 -259s-264 104 -264 259v202c0 155 96 259 264 259c158 0 252 -92 263 -231h-135c-12 63 -64 98 -128 98c-73 0 -130 -45 -130 -126v-202c0 -81 57 -126 130 -126s130 45 130 126v18h-130z"/>
<glyph glyph-name="H" unicode="H" d="M434 420v280h134v-700h-134v287h-260v-287h-134v700h134v-280h260z"/>
<glyph glyph-name="I" unicode="I" d="M517 0h-426v133h146v434h-146v133h426v-133h-146v-434h146v-133z"/>
<glyph glyph-name="J" unicode="J" d="M421 567h-292v133h426v-451c0 -155 -96 -259 -264 -259c-150 0 -243 83 -261 210h139c18 -50 65 -77 122 -77c73 0 130 45 130 126v318z"/>
<glyph glyph-name="K" unicode="K" d="M176 198v-198h-136v700h136v-302l257 302h171l-246 -289l271 -411h-164l-199 303z"/>
<glyph glyph-name="L" unicode="L" d="M243 700v-567h292v-133h-426v700h134z"/>
<glyph glyph-name="M" unicode="M" d="M348 188h-88l-91 261v-449h-129v700h138l126 -359l126 359h138v-700h-129v449z"/>
<glyph glyph-name="N" unicode="N" d="M568 700v-700h-134l-260 451v-451h-134v700h134l260 -451v451h134z"/>
<glyph glyph-name="O" unicode="O" d="M568 249c0 -155 -96 -259 -264 -259s-264 104 -264 259v202c0 155 96 259 264 259s264 -104 264 -259v-202zM434 249v202c0 81 -57 126 -130 126s-130 -45 -130 -126v-202c0 -81 57 -126 130 -126s130 45 130 126z"/>
<glyph glyph-name="P" unicode="P" d="M198 348h152c74 0 108 56 108 110s-34 109 -108 109h-152v-219zM198 215v-215h-134v700h286c166 0 242 -114 242 -242c0 -127 -76 -243 -242 -243h-152z"/>
<glyph glyph-name="Q" unicode="Q" d="M568 249c0 -58 -13 -109 -39 -150l54 -55l-91 -89l-59 61c-36 -17 -80 -26 -129 -26c-168 0 -264 104 -264 259v202c0 155 96 259 264 259s264 -104 264 -259v-202zM434 249v202c0 81 -57 126 -130 126c-68 0 -122 -39 -129 -109l252 -263c4 13 7 28 7 44zM304 123 c8 0 17 1 25 2l-155 161v-37c0 -81 57 -126 130 -126z"/>
<glyph glyph-name="R" unicode="R" d="M276 288h-82v-288h-134v700h295c142 0 221 -80 221 -206c0 -104 -53 -176 -151 -199l174 -295h-154zM442 492c0 49 -33 75 -84 75h-164v-149h164c51 0 84 26 84 74z"/>
<glyph glyph-name="S" unicode="S" d="M310 -10c-153 0 -252 92 -259 231h138c8 -59 54 -98 121 -98c59 0 100 22 100 70c0 39 -23 61 -72 74l-118 32c-107 29 -160 104 -160 207c0 140 110 204 232 204c140 0 227 -82 242 -201h-149c-13 45 -55 68 -100 68c-51 0 -91 -22 -91 -71c0 -41 32 -59 70 -69l114 -31 c108 -29 166 -95 166 -213c0 -126 -82 -203 -234 -203z"/>
<glyph glyph-name="T" unicode="T" d="M568 567h-195v-567h-138v567h-195v133h528v-133z"/>
<glyph glyph-name="U" unicode="U" d="M434 700h134v-451c0 -155 -96 -259 -264 -259s-264 104 -264 259v451h134v-451c0 -81 57 -126 130 -126s130 45 130 126v451z"/>
<glyph glyph-name="V" unicode="V" d="M304 213l174 487h141l-250 -700h-130l-250 700h141z"/>
<glyph glyph-name="W" unicode="W" d="M348 600l57 -400l58 500h135l-100 -700h-134l-60 420l-60 -420h-134l-100 700h135l58 -500l57 400h88z"/>
<glyph glyph-name="X" unicode="X" d="M459 0l-155 246l-155 -246h-153l232 362l-217 338h153l140 -220l140 220h153l-217 -338l232 -362h-153z"/>
<glyph glyph-name="Y" unicode="Y" d="M371 255v-255h-134v255l-248 445h152l163 -292l163 292h152z"/>
<glyph glyph-name="Z" unicode="Z" d="M566 0h-533v133l350 434h-345v133h523v-133l-350 -434h355v-133z"/>
<glyph glyph-name="bracketleft" unicode="[" d="M250 -92v792h225v-42h-182v-708h182v-42h-225z"/>
<glyph glyph-name="backslash" unicode="\" d="M49 679l37 26l472 -684l-37 -26z"/>
<glyph glyph-name="bracketright" unicode="]" d="M358 700v-792h-225v42h182v708h-182v42h225z"/>
<glyph glyph-name="asciicircum" unicode="^" d="M543 403l-239 239l-239 -239l-31 32l270 270l270 -270z"/>
<glyph glyph-name="underscore" unicode="_" d="M502 -114h-396v45h396v-45z"/>
<glyph glyph-name="grave" unicode="`" d="M431 584l-267 73l13 48l267 -73z"/>
<glyph glyph-name="a" unicode="a" d="M395 335c-2 12 -6 23 -12 33c-16 27 -44 43 -84 43c-46 0 -78 -22 -91 -57h-133c21 108 98 176 224 176c148 0 230 -94 230 -237v-293h-132v59c-24 -39 -65 -69 -144 -69c-118 0 -188 58 -188 153c0 75 26 120 98 154c51 24 154 32 232 38zM225 202 c-22 -11 -28 -22 -28 -44c0 -25 19 -52 78 -52c68 0 122 38 122 103v17c-75 -5 -147 -11 -172 -24z"/>
<glyph glyph-name="b" unicode="b" d="M210 49v-49h-132v700h132v-229c23 35 75 59 121 59c105 0 207 -72 207 -224v-92c0 -152 -102 -224 -207 -224c-46 0 -98 24 -121 59zM406 219v82c0 70 -48 100 -98 100s-98 -30 -98 -100v-82c0 -70 48 -100 98 -100s98 30 98 100z"/>
<glyph glyph-name="c" unicode="c" d="M405 188h132c-14 -121 -94 -198 -228 -198c-148 0 -230 94 -230 237v66c0 143 82 237 230 237c134 0 214 -77 228 -198h-132c-8 48 -41 79 -96 79c-63 0 -98 -40 -98 -101v-100c0 -61 35 -101 98 -101c55 0 89 30 96 79z"/>
<glyph glyph-name="d" unicode="d" d="M398 49c-23 -35 -75 -59 -121 -59c-105 0 -207 72 -207 224v92c0 152 102 224 207 224c46 0 98 -24 121 -59v229h132v-700h-132v49zM202 301v-82c0 -70 48 -100 98 -100s98 30 98 100v82c0 70 -48 100 -98 100s-98 -30 -98 -100z"/>
<glyph glyph-name="e" unicode="e" d="M535 213h-328v-3c0 -61 35 -101 98 -101c46 0 78 22 91 57h134c-21 -108 -99 -176 -225 -176c-148 0 -230 94 -230 237v66c0 143 82 237 230 237s230 -94 230 -237v-80zM305 411c-58 0 -93 -35 -98 -88v-1h195v1c-4 54 -38 88 -97 88z"/>
<glyph glyph-name="f" unicode="f" d="M544 581h-179c-32 0 -38 -17 -38 -41v-24h217v-119h-217v-397h-132v397h-147v119h147v52c0 83 40 132 132 132h217v-119z"/>
<glyph glyph-name="g" unicode="g" d="M73 -3h132c10 -45 42 -72 95 -72c63 0 98 40 98 101v60c-23 -35 -75 -59 -121 -59c-105 0 -207 72 -207 224v55c0 152 102 224 207 224c46 0 98 -24 121 -59v45h132v-473c0 -143 -82 -237 -230 -237c-131 0 -211 74 -227 191zM202 301v-45c0 -70 48 -100 98 -100 s98 30 98 100v45c0 70 -48 100 -98 100s-98 -30 -98 -100z"/>
<glyph glyph-name="h" unicode="h" d="M536 306v-306h-132v301c0 70 -48 100 -98 100s-98 -30 -98 -100v-301h-132v700h132v-229c23 35 75 59 121 59c105 0 207 -72 207 -224z"/>
<glyph glyph-name="i" unicode="i" d="M555 0h-496v119h182v278h-132v119h264v-397h182v-119zM236 553v147h147v-147h-147z"/>
<glyph glyph-name="j" unicode="j" d="M40 -65h229c32 0 38 17 38 41v421h-217v119h349v-568c0 -83 -40 -132 -132 -132h-267v119zM292 553v147h147v-147h-147z"/>
<glyph glyph-name="k" unicode="k" d="M223 700v-364l165 180h160l-187 -203l214 -313h-155l-148 216l-49 -54v-162h-132v700h132z"/>
<glyph glyph-name="l" unicode="l" d="M553 0h-496v119h182v462h-132v119h264v-581h182v-119z"/>
<glyph glyph-name="m" unicode="m" d="M369 366v-366h-126v366c0 24 -18 35 -35 35s-35 -11 -35 -35v-366h-126v516h126v-23c15 22 44 32 68 32s55 -7 75 -33c18 22 55 38 94 38c114 0 155 -78 155 -169v-361h-126v366c0 24 -18 35 -35 35s-35 -11 -35 -35z"/>
<glyph glyph-name="n" unicode="n" d="M536 306v-306h-132v301c0 70 -48 100 -98 100s-98 -30 -98 -100v-301h-132v516h132v-45c23 35 75 59 121 59c105 0 207 -72 207 -224z"/>
<glyph glyph-name="o" unicode="o" d="M74 227v66c0 143 82 237 230 237s230 -94 230 -237v-66c0 -143 -82 -237 -230 -237s-230 94 -230 237zM402 210v100c0 61 -35 101 -98 101s-98 -40 -98 -101v-100c0 -61 35 -101 98 -101s98 40 98 101z"/>
<glyph glyph-name="p" unicode="p" d="M210 49v-233h-132v700h132v-45c23 35 75 59 121 59c105 0 207 -72 207 -224v-92c0 -152 -102 -224 -207 -224c-46 0 -98 24 -121 59zM406 219v82c0 70 -48 100 -98 100s-98 -30 -98 -100v-82c0 -70 48 -100 98 -100s98 30 98 100z"/>
<glyph glyph-name="q" unicode="q" d="M398 49c-23 -35 -75 -59 -121 -59c-105 0 -207 72 -207 224v92c0 152 102 224 207 224c46 0 98 -24 121 -59v45h132v-700h-132v233zM202 301v-82c0 -70 48 -100 98 -100s98 30 98 100v82c0 70 -48 100 -98 100s-98 -30 -98 -100z"/>
<glyph glyph-name="r" unicode="r" d="M501 0h-469v119h163v278h-113v119h245v-56c15 34 59 65 120 65h104v-119h-126c-50 0 -98 -30 -98 -100v-187h174v-119z"/>
<glyph glyph-name="s" unicode="s" d="M316 -10c-107 0 -219 55 -224 177h132c6 -40 53 -58 96 -58c26 0 65 6 65 40c0 21 -15 33 -46 40l-108 24c-56 13 -127 57 -127 158s91 159 197 159c105 0 191 -50 200 -167h-135c-7 33 -36 48 -69 48c-38 0 -60 -15 -61 -39c0 -22 18 -33 40 -38l116 -26 c56 -13 125 -52 125 -159c0 -115 -93 -159 -201 -159z"/>
<glyph glyph-name="t" unicode="t" d="M360 119h179v-119h-217c-92 0 -132 49 -132 132v265h-147v119h147v117h132v-117h217v-119h-217v-237c0 -24 6 -41 38 -41z"/>
<glyph glyph-name="u" unicode="u" d="M302 119c48 0 95 31 95 100v297h132v-516h-132v56c-22 -35 -62 -66 -125 -66c-96 0 -197 69 -197 224v302h132v-297c0 -69 47 -100 95 -100z"/>
<glyph glyph-name="v" unicode="v" d="M304 187l115 329h139l-186 -516h-136l-186 516h139z"/>
<glyph glyph-name="w" unicode="w" d="M340 436l45 -282l38 362h135l-83 -516h-123l-48 286l-48 -286h-123l-83 516h135l38 -362l45 282h72z"/>
<glyph glyph-name="x" unicode="x" d="M304 370l95 146h150l-167 -251l175 -265h-151l-102 158l-102 -158h-151l175 265l-167 251h150z"/>
<glyph glyph-name="y" unicode="y" d="M558 516l-203 -565c-28 -78 -36 -135 -128 -135h-110v119h67c24 0 31 12 35 23l15 42l-184 516h139l115 -329l115 329h139z"/>
<glyph glyph-name="z" unicode="z" d="M492 397l-222 -278h229v-119h-395v119l222 278h-215v119h381v-119z"/>
<glyph glyph-name="braceleft" unicode="{" d="M186 283h-10v42h10c53 0 64 20 64 61v211c0 66 21 103 107 103h118v-42h-118c-53 0 -64 -20 -64 -61v-211c0 -37 -9 -67 -34 -82c25 -16 34 -46 34 -82v-211c0 -41 11 -61 64 -61h118v-42h-118c-86 0 -107 37 -107 103v211c0 41 -11 61 -64 61z"/>
<glyph glyph-name="bar" unicode="|" d="M282 -100v800h43v-800h-43z"/>
<glyph glyph-name="braceright" unicode="}" d="M432 283h-10c-53 0 -64 -20 -64 -61v-211c0 -66 -21 -103 -107 -103h-118v42h118c53 0 64 20 64 61v211c0 36 9 66 34 82c-25 15 -34 45 -34 82v211c0 41 -11 61 -64 61h-118v42h118c86 0 107 -37 107 -103v-211c0 -41 11 -61 64 -61h10v-42z"/>
<glyph glyph-name="asciitilde" unicode="~" d="M513 304l-159 -86l-102 73l-135 -73l-21 38l159 86l102 -73l135 73z"/>
<glyph glyph-name="uni00A0" unicode=" "/>
<glyph glyph-name="exclamdown" unicode="¡" d="M370 286v-470h-132v470h132zM224 356v160h160v-160h-160z"/>
<glyph glyph-name="cent" unicode="¢" d="M287 484v136h43v-136h-43zM287 -100v140h43v-140h-43zM405 188h132c-14 -121 -94 -198 -228 -198c-148 0 -230 94 -230 237v66c0 143 82 237 230 237c134 0 214 -77 228 -198h-132c-8 48 -41 79 -96 79c-63 0 -98 -40 -98 -101v-100c0 -61 35 -101 98 -101 c55 0 89 30 96 79z"/>
<glyph glyph-name="sterling" unicode="£" d="M45 372h64v101c0 143 82 237 230 237c145 0 227 -91 230 -229h-132v9c0 61 -35 101 -98 101s-98 -40 -98 -101v-118h196v-43h-196v-210h328v-119h-524v119h64v210h-64v43z"/>
<glyph glyph-name="currency" unicode="¤" d="M563 50l-84 84c-47 -40 -108 -64 -175 -64s-128 24 -175 64l-84 -84l-31 30l84 85c-40 47 -64 108 -64 175s24 128 64 175l-84 85l31 30l84 -85c47 41 108 65 175 65s128 -24 175 -65l84 85l31 -30l-85 -85c41 -47 65 -108 65 -175s-24 -128 -65 -175l85 -85zM153 340 c0 -83 68 -151 151 -151s151 68 151 151s-68 151 -151 151s-151 -68 -151 -151z"/>
<glyph glyph-name="yen" unicode="¥" d="M370 173h131v-43h-131v-130h-132v130h-132v43h132v82h-132v43h108l-225 402h148l167 -300l167 300h148l-225 -402h107v-43h-131v-82z"/>
<glyph glyph-name="brokenbar" unicode="¦" d="M283 -100v339h43v-339h-43zM283 361v339h43v-339h-43z"/>
<glyph glyph-name="section" unicode="§" d="M232 122c-52 20 -137 53 -137 159c0 69 39 116 101 137c-38 26 -68 68 -68 133c0 94 76 159 175 159c95 0 168 -60 182 -162h-45c-11 71 -62 120 -137 120c-66 0 -129 -44 -130 -117c0 -59 36 -98 87 -115l116 -40c53 -18 139 -54 139 -160c0 -71 -42 -117 -104 -138 c39 -28 70 -74 70 -140c0 -81 -44 -152 -173 -152c-113 0 -176 73 -186 172h45c8 -77 65 -130 141 -130c91 0 128 50 128 110s-35 107 -87 124zM367 353l-105 35c-57 -4 -121 -28 -122 -107c0 -66 46 -97 103 -116l103 -36c57 4 124 28 124 107c0 66 -46 98 -103 117z"/>
<glyph glyph-name="dieresis" unicode="¨" d="M148 607v76h76v-76h-76zM384 607v76h76v-76h-76z"/>
<glyph glyph-name="copyright" unicode="©" d="M525 249v202c0 129 -80 217 -221 217s-221 -88 -221 -217v-202c0 -129 80 -217 221 -217s221 88 221 217zM568 451v-202c0 -155 -96 -259 -264 -259s-264 104 -264 259v202c0 155 96 259 264 259s264 -104 264 -259zM304 168c-97 0 -146 57 -146 137v86 c0 80 49 136 146 136c96 0 145 -54 147 -133h-94c-3 24 -24 41 -53 41c-30 0 -53 -18 -53 -44v-86c0 -27 23 -45 53 -45c29 0 50 16 53 41h94c-2 -79 -51 -133 -147 -133z"/>
<glyph glyph-name="ordfeminine" unicode="ª" d="M264 294c-100 0 -150 49 -150 118c0 57 24 91 59 112c52 31 130 33 196 39c-2 10 -6 19 -12 26c-13 15 -34 23 -57 23c-33 0 -55 -16 -65 -38h-112c17 72 64 137 177 137c136 0 183 -92 183 -192v-217h-112v49c-15 -29 -42 -57 -107 -57zM283 389c55 0 88 37 88 75v9 c-51 -3 -107 -9 -122 -15c-16 -6 -23 -16 -23 -32c0 -13 10 -37 57 -37zM483 207h-369v45h369v-45z"/>
<glyph glyph-name="guillemotleft" unicode="«" d="M264 46l-210 210l210 210l32 -31l-179 -179l179 -179zM489 46l-210 210l210 210l32 -31l-179 -179l179 -179z"/>
<glyph glyph-name="logicalnot" unicode="¬" d="M106 258v45h396v-221h-45v176h-351z"/>
<glyph glyph-name="uni00AD" unicode="­" d="M449 258h-290v45h290v-45z"/>
<glyph glyph-name="registered" unicode="®" d="M568 451v-202c0 -155 -96 -259 -264 -259s-264 104 -264 259v202c0 155 96 259 264 259s264 -104 264 -259zM525 249v202c0 129 -80 217 -221 217s-221 -88 -221 -217v-202c0 -129 80 -217 221 -217s221 88 221 217zM467 173h-107l-76 130h-21v-130h-93v349h166 c79 0 120 -40 120 -109c0 -53 -24 -89 -70 -103zM263 430v-36h75c18 0 25 6 25 18s-7 18 -25 18h-75z"/>
<glyph glyph-name="macron" unicode="¯" d="M460 620h-312v50h312v-50z"/>
<glyph glyph-name="degree" unicode="°" d="M148 549c0 86 70 156 156 156s156 -70 156 -156s-70 -156 -156 -156s-156 70 -156 156zM191 549c0 -63 50 -114 113 -114s113 51 113 114s-50 114 -113 114s-113 -51 -113 -114z"/>
<glyph glyph-name="plusminus" unicode="±" d="M282 229v121h-176v45h176v121h45v-121h175v-45h-175v-121h-45zM502 155h-396v45h396v-45z"/>
<glyph glyph-name="twosuperior" unicode="²" d="M267 645l-69 -62c-24 27 -34 54 -34 88c0 79 63 142 141 142c79 0 142 -63 142 -142c0 -52 -20 -74 -64 -114l-83 -73h147v-83h-283v83l161 144c28 25 29 35 29 48c0 30 -16 54 -49 54c-32 0 -48 -24 -48 -54c0 -8 5 -22 10 -31z"/>
<glyph glyph-name="threesuperior" unicode="³" d="M308 395c-96 0 -150 63 -150 142h93c0 -30 13 -59 48 -59s49 29 49 59c0 26 -18 55 -49 55v83c15 0 20 13 20 25c0 14 -1 30 -20 30s-20 -16 -20 -30h-93c0 62 50 113 113 113s113 -51 113 -113c0 -23 -7 -43 -18 -60c29 -25 47 -62 47 -103c0 -79 -46 -142 -133 -142z "/>
<glyph glyph-name="acute" unicode="´" d="M444 657l-267 -73l-13 48l267 73z"/>
<glyph glyph-name="paragraph" unicode="¶" d="M515 700v-787h-43v745h-155v-745h-43v387h-10c-110 0 -199 90 -199 200c0 109 89 200 199 200h251z"/>
<glyph glyph-name="periodcentered" unicode="·" d="M224 205v160h160v-160h-160z"/>
<glyph glyph-name="cedilla" unicode="¸" d="M215 -134h84v84h50v-134h-134v50z"/>
<glyph glyph-name="onesuperior" unicode="¹" d="M219 632l-63 63l112 112h93v-323h105v-83h-304v83h106v197z"/>
<glyph glyph-name="ordmasculine" unicode="º" d="M304 393c48 0 71 32 71 72v74c0 41 -23 73 -71 73c-47 0 -71 -32 -71 -73v-74c0 -40 24 -72 71 -72zM304 294c-136 0 -183 92 -183 192v33c0 100 47 192 183 192s183 -92 183 -192v-33c0 -100 -47 -192 -183 -192zM487 207h-366v45h366v-45z"/>
<glyph glyph-name="guillemotright" unicode="»" d="M329 256l-210 -210l-32 31l179 179l-179 179l32 31zM554 256l-210 -210l-32 31l179 179l-179 179l32 31z"/>
<glyph glyph-name="onequarter" unicode="¼" d="M69 606l-29 29l65 65h42v-221h67v-40h-177v40h68v164zM71 150l434 435l32 -32l-434 -435zM519 0h-42v63h-115v40l116 160l33 -24l-99 -136h65v53h42v-53h27v-40h-27v-63z"/>
<glyph glyph-name="onehalf" unicode="½" d="M69 606l-29 29l65 65h42v-221h67v-40h-177v40h68v164zM71 150l434 435l32 -32l-434 -435zM432 154l-29 -29c-15 14 -25 35 -25 59c0 45 36 81 81 81s81 -36 81 -81c0 -29 -9 -45 -35 -72l-70 -72h105v-40h-162v40l96 99c17 17 24 29 24 45c0 22 -15 40 -39 40 c-23 0 -39 -18 -39 -40c0 -12 4 -22 12 -30z"/>
<glyph glyph-name="threequarters" unicode="¾" d="M134 558v38h3c17 1 29 17 29 34c0 18 -13 33 -32 33s-32 -15 -32 -33h-42c0 41 33 74 74 74s74 -33 74 -74c0 -21 -9 -39 -22 -52c18 -15 29 -37 29 -62c0 -45 -36 -81 -81 -81s-81 36 -81 81h42c0 -22 16 -40 39 -40s39 18 39 40s-15 40 -36 42h-3zM71 150l434 435 l32 -32l-434 -435zM519 0h-42v63h-115v40l116 160l33 -24l-99 -136h65v53h42v-53h27v-40h-27v-63z"/>
<glyph glyph-name="questiondown" unicode="¿" d="M379 121h-70c-52 -2 -94 -46 -94 -98c0 -54 44 -98 98 -98s98 44 98 98h132c0 -127 -103 -217 -230 -217s-230 90 -230 217c0 104 69 183 164 208v55h132v-165zM236 356v160h160v-160h-160z"/>
<glyph glyph-name="Agrave" unicode="À" d="M382 268l-78 227l-78 -227h156zM428 141h-248l-50 -141h-140l250 700h128l250 -700h-140zM431 738l-267 73l13 48l267 -73z"/>
<glyph glyph-name="Aacute" unicode="Á" d="M382 268l-78 227l-78 -227h156zM428 141h-248l-50 -141h-140l250 700h128l250 -700h-140zM444 811l-267 -73l-13 48l267 73z"/>
<glyph glyph-name="Acircumflex" unicode="Â" d="M382 268l-78 227l-78 -227h156zM428 141h-248l-50 -141h-140l250 700h128l250 -700h-140zM445 738l-141 67l-141 -67l-21 44l162 77l162 -77z"/>
<glyph glyph-name="Atilde" unicode="Ã" d="M382 268l-78 227l-78 -227h156zM428 141h-248l-50 -141h-140l250 700h128l250 -700h-140zM475 813l-133 -71l-79 57l-107 -57l-23 43l133 71l79 -57l107 57z"/>
<glyph glyph-name="Adieresis" unicode="Ä" d="M382 268l-78 227l-78 -227h156zM428 141h-248l-50 -141h-140l250 700h128l250 -700h-140zM148 761v76h76v-76h-76zM384 761v76h76v-76h-76z"/>
<glyph glyph-name="Aring" unicode="Å" d="M190 765c0 63 51 115 114 115s115 -52 115 -115c0 -36 -17 -68 -43 -89l242 -676h-140l-50 141h-248l-50 -141h-140l241 676c-25 21 -41 53 -41 89zM382 268l-78 227l-78 -227h156zM239 765c0 -36 29 -65 65 -65s66 29 66 65s-30 66 -66 66s-65 -30 -65 -66z"/>
<glyph glyph-name="AE" unicode="Æ" d="M422 567v-147h76v-133h-76v-154h146v-133h-280v141h-108l-50 -141h-141l250 700h329v-133h-146zM226 268h62v174z"/>
<glyph glyph-name="Ccedilla" unicode="Ç" d="M438 234h135c-6 -147 -101 -244 -264 -244c-168 0 -264 104 -264 259v202c0 155 96 259 264 259c163 0 258 -97 264 -244h-135c-7 71 -61 111 -129 111c-73 0 -130 -45 -130 -126v-202c0 -81 57 -126 130 -126c68 0 122 39 129 111zM200 -134h84v84h50v-134h-134v50z"/>
<glyph glyph-name="Egrave" unicode="È" d="M236 567v-147h222v-133h-222v-154h292v-133h-426v700h426v-133h-292zM442 738l-267 73l13 48l267 -73z"/>
<glyph glyph-name="Eacute" unicode="É" d="M236 567v-147h222v-133h-222v-154h292v-133h-426v700h426v-133h-292zM455 811l-267 -73l-13 48l267 73z"/>
<glyph glyph-name="Ecircumflex" unicode="Ê" d="M236 567v-147h222v-133h-222v-154h292v-133h-426v700h426v-133h-292zM456 738l-141 67l-141 -67l-21 44l162 77l162 -77z"/>
<glyph glyph-name="Edieresis" unicode="Ë" d="M236 567v-147h222v-133h-222v-154h292v-133h-426v700h426v-133h-292zM159 761v76h76v-76h-76zM395 761v76h76v-76h-76z"/>
<glyph glyph-name="Igrave" unicode="Ì" d="M517 0h-426v133h146v434h-146v133h426v-133h-146v-434h146v-133zM431 738l-267 73l13 48l267 -73z"/>
<glyph glyph-name="Iacute" unicode="Í" d="M517 0h-426v133h146v434h-146v133h426v-133h-146v-434h146v-133zM444 811l-267 -73l-13 48l267 73z"/>
<glyph glyph-name="Icircumflex" unicode="Î" d="M517 0h-426v133h146v434h-146v133h426v-133h-146v-434h146v-133zM445 738l-141 67l-141 -67l-21 44l162 77l162 -77z"/>
<glyph glyph-name="Idieresis" unicode="Ï" d="M517 0h-426v133h146v434h-146v133h426v-133h-146v-434h146v-133zM148 761v76h76v-76h-76zM384 761v76h76v-76h-76z"/>
<glyph glyph-name="Eth" unicode="Ð" d="M322 0h-264v328h-70v45h70v327h264c168 0 264 -104 264 -259v-182c0 -155 -96 -259 -264 -259zM452 259v182c0 81 -57 126 -130 126h-130v-194h130v-45h-130v-195h130c73 0 130 45 130 126z"/>
<glyph glyph-name="Ntilde" unicode="Ñ" d="M568 700v-700h-134l-260 451v-451h-134v700h134l260 -451v451h134zM475 813l-133 -71l-79 57l-107 -57l-23 43l133 71l79 -57l107 57z"/>
<glyph glyph-name="Ograve" unicode="Ò" d="M568 249c0 -155 -96 -259 -264 -259s-264 104 -264 259v202c0 155 96 259 264 259s264 -104 264 -259v-202zM434 249v202c0 81 -57 126 -130 126s-130 -45 -130 -126v-202c0 -81 57 -126 130 -126s130 45 130 126zM431 738l-267 73l13 48l267 -73z"/>
<glyph glyph-name="Oacute" unicode="Ó" d="M568 249c0 -155 -96 -259 -264 -259s-264 104 -264 259v202c0 155 96 259 264 259s264 -104 264 -259v-202zM434 249v202c0 81 -57 126 -130 126s-130 -45 -130 -126v-202c0 -81 57 -126 130 -126s130 45 130 126zM444 811l-267 -73l-13 48l267 73z"/>
<glyph glyph-name="Ocircumflex" unicode="Ô" d="M568 249c0 -155 -96 -259 -264 -259s-264 104 -264 259v202c0 155 96 259 264 259s264 -104 264 -259v-202zM434 249v202c0 81 -57 126 -130 126s-130 -45 -130 -126v-202c0 -81 57 -126 130 -126s130 45 130 126zM445 738l-141 67l-141 -67l-21 44l162 77l162 -77z"/>
<glyph glyph-name="Otilde" unicode="Õ" d="M568 249c0 -155 -96 -259 -264 -259s-264 104 -264 259v202c0 155 96 259 264 259s264 -104 264 -259v-202zM434 249v202c0 81 -57 126 -130 126s-130 -45 -130 -126v-202c0 -81 57 -126 130 -126s130 45 130 126zM475 813l-133 -71l-79 57l-107 -57l-23 43l133 71 l79 -57l107 57z"/>
<glyph glyph-name="Odieresis" unicode="Ö" d="M568 249c0 -155 -96 -259 -264 -259s-264 104 -264 259v202c0 155 96 259 264 259s264 -104 264 -259v-202zM434 249v202c0 81 -57 126 -130 126s-130 -45 -130 -126v-202c0 -81 57 -126 130 -126s130 45 130 126zM148 761v76h76v-76h-76zM384 761v76h76v-76h-76z"/>
<glyph glyph-name="multiply" unicode="×" d="M476 419l-140 -139l140 -139l-32 -32l-140 139l-139 -139l-32 32l139 139l-139 139l32 32l139 -139l140 139z"/>
<glyph glyph-name="Oslash" unicode="Ø" d="M568 249c0 -155 -96 -259 -264 -259c-66 0 -121 16 -164 45l-40 -68l-37 23l44 73c-44 46 -67 109 -67 186v202c0 155 96 259 264 259c65 0 120 -16 162 -45l41 68l37 -23l-44 -73c44 -46 68 -110 68 -186v-202zM434 249v202c0 21 -4 40 -11 56l-211 -352 c23 -21 56 -32 92 -32c73 0 130 45 130 126zM174 249c0 -21 3 -40 10 -56l211 352c-24 21 -55 32 -91 32c-73 0 -130 -45 -130 -126v-202z"/>
<glyph glyph-name="Ugrave" unicode="Ù" d="M434 700h134v-451c0 -155 -96 -259 -264 -259s-264 104 -264 259v451h134v-451c0 -81 57 -126 130 -126s130 45 130 126v451zM431 738l-267 73l13 48l267 -73z"/>
<glyph glyph-name="Uacute" unicode="Ú" d="M434 700h134v-451c0 -155 -96 -259 -264 -259s-264 104 -264 259v451h134v-451c0 -81 57 -126 130 -126s130 45 130 126v451zM444 811l-267 -73l-13 48l267 73z"/>
<glyph glyph-name="Ucircumflex" unicode="Û" d="M434 700h134v-451c0 -155 -96 -259 -264 -259s-264 104 -264 259v451h134v-451c0 -81 57 -126 130 -126s130 45 130 126v451zM445 738l-141 67l-141 -67l-21 44l162 77l162 -77z"/>
<glyph glyph-name="Udieresis" unicode="Ü" d="M434 700h134v-451c0 -155 -96 -259 -264 -259s-264 104 -264 259v451h134v-451c0 -81 57 -126 130 -126s130 45 130 126v451zM148 761v76h76v-76h-76zM384 761v76h76v-76h-76z"/>
<glyph glyph-name="Yacute" unicode="Ý" d="M371 255v-255h-134v255l-248 445h152l163 -292l163 292h152zM444 811l-267 -73l-13 48l267 73z"/>
<glyph glyph-name="Thorn" unicode="Þ" d="M198 241h152c74 0 108 56 108 110s-34 109 -108 109h-152v-219zM198 108v-108h-134v700h134v-107h152c166 0 242 -114 242 -242c0 -127 -76 -243 -242 -243h-152z"/>
<glyph glyph-name="germandbls" unicode="ß" d="M288 -70c72 0 122 63 122 135s-50 135 -122 135v119l59 78h-123v-397h-132v568c0 83 40 132 132 132h64v-119h-26c-32 0 -38 -17 -38 -41v-24h272v-119l-84 -111c77 -43 130 -126 130 -221c0 -140 -114 -254 -254 -254v119z"/>
<glyph glyph-name="agrave" unicode="à" d="M395 335c-2 12 -6 23 -12 33c-16 27 -44 43 -84 43c-46 0 -78 -22 -91 -57h-133c21 108 98 176 224 176c148 0 230 -94 230 -237v-293h-132v59c-24 -39 -65 -69 -144 -69c-118 0 -188 58 -188 153c0 75 26 120 98 154c51 24 154 32 232 38zM225 202 c-22 -11 -28 -22 -28 -44c0 -25 19 -52 78 -52c68 0 122 38 122 103v17c-75 -5 -147 -11 -172 -24zM434 584l-267 73l13 48l267 -73z"/>
<glyph glyph-name="aacute" unicode="á" d="M395 335c-2 12 -6 23 -12 33c-16 27 -44 43 -84 43c-46 0 -78 -22 -91 -57h-133c21 108 98 176 224 176c148 0 230 -94 230 -237v-293h-132v59c-24 -39 -65 -69 -144 -69c-118 0 -188 58 -188 153c0 75 26 120 98 154c51 24 154 32 232 38zM225 202 c-22 -11 -28 -22 -28 -44c0 -25 19 -52 78 -52c68 0 122 38 122 103v17c-75 -5 -147 -11 -172 -24zM447 657l-267 -73l-13 48l267 73z"/>
<glyph glyph-name="acircumflex" unicode="â" d="M395 335c-2 12 -6 23 -12 33c-16 27 -44 43 -84 43c-46 0 -78 -22 -91 -57h-133c21 108 98 176 224 176c148 0 230 -94 230 -237v-293h-132v59c-24 -39 -65 -69 -144 -69c-118 0 -188 58 -188 153c0 75 26 120 98 154c51 24 154 32 232 38zM225 202 c-22 -11 -28 -22 -28 -44c0 -25 19 -52 78 -52c68 0 122 38 122 103v17c-75 -5 -147 -11 -172 -24zM448 584l-141 67l-141 -67l-21 44l162 77l162 -77z"/>
<glyph glyph-name="atilde" unicode="ã" d="M395 335c-2 12 -6 23 -12 33c-16 27 -44 43 -84 43c-46 0 -78 -22 -91 -57h-133c21 108 98 176 224 176c148 0 230 -94 230 -237v-293h-132v59c-24 -39 -65 -69 -144 -69c-118 0 -188 58 -188 153c0 75 26 120 98 154c51 24 154 32 232 38zM225 202 c-22 -11 -28 -22 -28 -44c0 -25 19 -52 78 -52c68 0 122 38 122 103v17c-75 -5 -147 -11 -172 -24zM478 659l-133 -71l-79 57l-107 -57l-23 43l133 71l79 -57l107 57z"/>
<glyph glyph-name="adieresis" unicode="ä" d="M395 335c-2 12 -6 23 -12 33c-16 27 -44 43 -84 43c-46 0 -78 -22 -91 -57h-133c21 108 98 176 224 176c148 0 230 -94 230 -237v-293h-132v59c-24 -39 -65 -69 -144 -69c-118 0 -188 58 -188 153c0 75 26 120 98 154c51 24 154 32 232 38zM225 202 c-22 -11 -28 -22 -28 -44c0 -25 19 -52 78 -52c68 0 122 38 122 103v17c-75 -5 -147 -11 -172 -24zM151 607v76h76v-76h-76zM387 607v76h76v-76h-76z"/>
<glyph glyph-name="aring" unicode="å" d="M185 595c0 63 51 115 114 115s115 -52 115 -115c0 -30 -12 -57 -31 -77c95 -30 146 -112 146 -225v-293h-132v59c-24 -39 -65 -69 -144 -69c-118 0 -188 58 -188 153c0 75 26 120 98 154c51 24 154 32 232 38c-9 47 -42 76 -96 76c-46 0 -78 -22 -91 -57h-133 c16 81 63 140 140 164c-19 20 -30 47 -30 77zM225 202c-22 -11 -28 -22 -28 -44c0 -25 19 -52 78 -52c68 0 122 38 122 103v17c-75 -5 -147 -11 -172 -24zM234 595c0 -36 29 -66 65 -66s66 30 66 66s-30 66 -66 66s-65 -30 -65 -66z"/>
<glyph glyph-name="ae" unicode="æ" d="M189 -10c-92 0 -159 56 -159 160v12c0 101 59 160 170 160h37v46c0 25 -12 43 -38 43s-37 -18 -37 -43v-14h-132v16c0 104 67 160 159 160c39 0 90 -15 114 -48c24 33 74 48 114 48c92 0 159 -56 159 -160v-157h-207v-61c0 -25 12 -43 38 -43s37 18 37 43v14h132v-16 c0 -104 -67 -160 -159 -160c-40 0 -90 15 -114 48c-24 -33 -75 -48 -114 -48zM162 170v-18c0 -25 11 -43 37 -43s38 18 38 43v61h-38c-26 0 -37 -18 -37 -43zM444 322v46c0 25 -12 43 -38 43s-37 -18 -37 -43v-46h75z"/>
<glyph glyph-name="ccedilla" unicode="ç" d="M405 188h132c-14 -121 -94 -198 -228 -198c-148 0 -230 94 -230 237v66c0 143 82 237 230 237c134 0 214 -77 228 -198h-132c-8 48 -41 79 -96 79c-63 0 -98 -40 -98 -101v-100c0 -61 35 -101 98 -101c55 0 89 30 96 79zM199 -134h84v84h50v-134h-134v50z"/>
<glyph glyph-name="egrave" unicode="è" d="M535 213h-328v-3c0 -61 35 -101 98 -101c46 0 78 22 91 57h134c-21 -108 -99 -176 -225 -176c-148 0 -230 94 -230 237v66c0 143 82 237 230 237s230 -94 230 -237v-80zM305 411c-58 0 -93 -35 -98 -88v-1h195v1c-4 54 -38 88 -97 88zM432 584l-267 73l13 48l267 -73z "/>
<glyph glyph-name="eacute" unicode="é" d="M535 213h-328v-3c0 -61 35 -101 98 -101c46 0 78 22 91 57h134c-21 -108 -99 -176 -225 -176c-148 0 -230 94 -230 237v66c0 143 82 237 230 237s230 -94 230 -237v-80zM305 411c-58 0 -93 -35 -98 -88v-1h195v1c-4 54 -38 88 -97 88zM445 657l-267 -73l-13 48l267 73z "/>
<glyph glyph-name="ecircumflex" unicode="ê" d="M535 213h-328v-3c0 -61 35 -101 98 -101c46 0 78 22 91 57h134c-21 -108 -99 -176 -225 -176c-148 0 -230 94 -230 237v66c0 143 82 237 230 237s230 -94 230 -237v-80zM305 411c-58 0 -93 -35 -98 -88v-1h195v1c-4 54 -38 88 -97 88zM446 584l-141 67l-141 -67l-21 44 l162 77l162 -77z"/>
<glyph glyph-name="edieresis" unicode="ë" d="M535 213h-328v-3c0 -61 35 -101 98 -101c46 0 78 22 91 57h134c-21 -108 -99 -176 -225 -176c-148 0 -230 94 -230 237v66c0 143 82 237 230 237s230 -94 230 -237v-80zM305 411c-58 0 -93 -35 -98 -88v-1h195v1c-4 54 -38 88 -97 88zM149 607v76h76v-76h-76zM385 607v76 h76v-76h-76z"/>
<glyph glyph-name="igrave" unicode="ì" d="M555 0h-496v119h182v278h-132v119h264v-397h182v-119zM434 584l-267 73l13 48l267 -73z"/>
<glyph glyph-name="iacute" unicode="í" d="M555 0h-496v119h182v278h-132v119h264v-397h182v-119zM447 657l-267 -73l-13 48l267 73z"/>
<glyph glyph-name="icircumflex" unicode="î" d="M555 0h-496v119h182v278h-132v119h264v-397h182v-119zM448 584l-141 67l-141 -67l-21 44l162 77l162 -77z"/>
<glyph glyph-name="idieresis" unicode="ï" d="M555 0h-496v119h182v278h-132v119h264v-397h182v-119zM151 607v76h76v-76h-76zM387 607v76h76v-76h-76z"/>
<glyph glyph-name="eth" unicode="ð" d="M74 227v66c0 132 70 222 196 235l-40 57h-111v43h80l-52 72h160l52 -72h95v-43h-64l97 -135l1 -1c30 -40 46 -94 46 -156v-66c0 -143 -82 -237 -230 -237s-230 94 -230 237zM402 210v100c0 61 -35 101 -98 101s-98 -40 -98 -101v-100c0 -61 35 -101 98 -101s98 40 98 101 z"/>
<glyph glyph-name="ntilde" unicode="ñ" d="M477 659l-133 -71l-79 57l-107 -57l-23 43l133 71l79 -57l107 57zM536 306v-306h-132v301c0 70 -48 100 -98 100s-98 -30 -98 -100v-301h-132v516h132v-45c23 35 75 59 121 59c105 0 207 -72 207 -224z"/>
<glyph glyph-name="ograve" unicode="ò" d="M74 227v66c0 143 82 237 230 237s230 -94 230 -237v-66c0 -143 -82 -237 -230 -237s-230 94 -230 237zM402 210v100c0 61 -35 101 -98 101s-98 -40 -98 -101v-100c0 -61 35 -101 98 -101s98 40 98 101zM431 584l-267 73l13 48l267 -73z"/>
<glyph glyph-name="oacute" unicode="ó" d="M74 227v66c0 143 82 237 230 237s230 -94 230 -237v-66c0 -143 -82 -237 -230 -237s-230 94 -230 237zM402 210v100c0 61 -35 101 -98 101s-98 -40 -98 -101v-100c0 -61 35 -101 98 -101s98 40 98 101zM444 657l-267 -73l-13 48l267 73z"/>
<glyph glyph-name="ocircumflex" unicode="ô" d="M74 227v66c0 143 82 237 230 237s230 -94 230 -237v-66c0 -143 -82 -237 -230 -237s-230 94 -230 237zM402 210v100c0 61 -35 101 -98 101s-98 -40 -98 -101v-100c0 -61 35 -101 98 -101s98 40 98 101zM445 584l-141 67l-141 -67l-21 44l162 77l162 -77z"/>
<glyph glyph-name="otilde" unicode="õ" d="M475 659l-133 -71l-79 57l-107 -57l-23 43l133 71l79 -57l107 57zM74 227v66c0 143 82 237 230 237s230 -94 230 -237v-66c0 -143 -82 -237 -230 -237s-230 94 -230 237zM402 210v100c0 61 -35 101 -98 101s-98 -40 -98 -101v-100c0 -61 35 -101 98 -101s98 40 98 101z "/>
<glyph glyph-name="odieresis" unicode="ö" d="M74 227v66c0 143 82 237 230 237s230 -94 230 -237v-66c0 -143 -82 -237 -230 -237s-230 94 -230 237zM402 210v100c0 61 -35 101 -98 101s-98 -40 -98 -101v-100c0 -61 35 -101 98 -101s98 40 98 101zM148 607v76h76v-76h-76zM384 607v76h76v-76h-76z"/>
<glyph glyph-name="divide" unicode="÷" d="M262 479c0 23 19 42 42 42s42 -19 42 -42s-19 -42 -42 -42s-42 19 -42 42zM262 82c0 23 19 42 42 42s42 -19 42 -42s-19 -42 -42 -42s-42 19 -42 42zM502 258h-396v45h396v-45z"/>
<glyph glyph-name="oslash" unicode="ø" d="M74 227v66c0 143 82 237 230 237c46 0 86 -9 119 -26l30 49l37 -23l-31 -51c49 -42 75 -106 75 -186v-66c0 -143 -82 -237 -230 -237c-47 0 -88 9 -121 26l-29 -49l-37 23l30 51c-48 42 -73 106 -73 186zM402 210v100c0 20 -4 38 -12 53l-143 -240c15 -9 34 -14 57 -14 c63 0 98 40 98 101zM206 210c0 -20 4 -38 11 -52l142 239c-15 9 -33 14 -55 14c-63 0 -98 -40 -98 -101v-100z"/>
<glyph glyph-name="ugrave" unicode="ù" d="M302 119c48 0 95 31 95 100v297h132v-516h-132v56c-22 -35 -62 -66 -125 -66c-96 0 -197 69 -197 224v302h132v-297c0 -69 47 -100 95 -100zM429 584l-267 73l13 48l267 -73z"/>
<glyph glyph-name="uacute" unicode="ú" d="M302 119c48 0 95 31 95 100v297h132v-516h-132v56c-22 -35 -62 -66 -125 -66c-96 0 -197 69 -197 224v302h132v-297c0 -69 47 -100 95 -100zM442 657l-267 -73l-13 48l267 73z"/>
<glyph glyph-name="ucircumflex" unicode="û" d="M302 119c48 0 95 31 95 100v297h132v-516h-132v56c-22 -35 -62 -66 -125 -66c-96 0 -197 69 -197 224v302h132v-297c0 -69 47 -100 95 -100zM443 584l-141 67l-141 -67l-21 44l162 77l162 -77z"/>
<glyph glyph-name="udieresis" unicode="ü" d="M302 119c48 0 95 31 95 100v297h132v-516h-132v56c-22 -35 -62 -66 -125 -66c-96 0 -197 69 -197 224v302h132v-297c0 -69 47 -100 95 -100zM146 607v76h76v-76h-76zM382 607v76h76v-76h-76z"/>
<glyph glyph-name="yacute" unicode="ý" d="M558 516l-203 -565c-28 -78 -36 -135 -128 -135h-110v119h67c24 0 31 12 35 23l15 42l-184 516h139l115 -329l115 329h139zM444 657l-267 -73l-13 48l267 73z"/>
<glyph glyph-name="thorn" unicode="þ" d="M210 49v-233h-132v884h132v-229c23 35 75 59 121 59c105 0 207 -72 207 -224v-92c0 -152 -102 -224 -207 -224c-46 0 -98 24 -121 59zM406 219v82c0 70 -48 100 -98 100s-98 -30 -98 -100v-82c0 -70 48 -100 98 -100s98 30 98 100z"/>
</font>
</defs>
</svg>
