<svg id="IBHK-Wall" data-name="IBHK Wall" xmlns="http://www.w3.org/2000/svg" width="10000" height="1000" viewBox="0 0 10000 1000"><defs><style>.mori{fill:none;stroke:#aaa;stroke-miterlimit:10;stroke-width:1px;}</style></defs><title>IBHK Wall</title><polyline class="mori" points="0.2 949.37 619.3 949.37 1008 949.69 1683.49 949.69 1912.65 949.86 2314.85 949.86 2438.9 950 2674.6 950 2751.4 949.03 3596.1 949.03 3688.73 948.97 4015.77 948.97 4104.56 949.39 4653.94 949.39 4789.47 949.6 5415.03 949.6 5564.57 949.61 5993.93 949.61 6209.66 949.83 6633.84 949.83 6841.88 949.78 7345.62 949.78 7481.97 949.65 7810.53 949.65 7952.75 949.94 8518.75 949.94 8739.05 949.19 9041.45 949.19 9393.91 949.99 9999.59 949.99"/><polyline class="mori" points="0.2 895.79 619.3 895.79 1008 839.34 1683.49 839.34 1912.65 882.79 2314.85 882.79 2438.9 861.22 2674.6 861.22 2751.4 868.9 3596.1 868.9 3688.73 841.86 4015.77 841.86 4104.56 870.48 4653.94 870.48 4789.47 906.95 5415.03 906.95 5564.57 877.96 5993.93 877.96 6209.66 903.1 6633.84 903.1 6841.88 853.4 7345.62 853.4 7481.97 836.32 7810.53 836.32 7952.75 871.51 8518.75 871.51 8739.05 884.34 9041.45 884.34 9393.91 911.21 9999.59 911.21"/><polyline class="mori" points="0.2 869.01 619.3 869.01 1008 784.17 1683.49 784.17 1912.65 849.25 2314.85 849.25 2438.9 816.82 2674.6 816.82 2751.4 828.84 3596.1 828.84 3688.73 788.31 4015.77 788.31 4104.56 831.02 4653.94 831.02 4789.47 885.63 5415.03 885.63 5564.57 842.13 5993.93 842.13 6209.66 879.74 6633.84 879.74 6841.88 805.22 7345.62 805.22 7481.97 779.65 7810.53 779.65 7952.75 832.29 8518.75 832.29 8739.05 851.92 9041.45 851.92 9393.91 891.82 9999.59 891.82"/><polyline class="mori" points="0.2 815.43 619.3 815.43 1008 673.82 1683.49 673.82 1912.65 782.18 2314.85 782.18 2438.9 728.04 2674.6 728.04 2751.4 748.71 3596.1 748.71 3688.73 681.2 4015.77 681.2 4104.56 752.11 4653.94 752.11 4789.47 842.97 5415.03 842.97 5564.57 770.48 5993.93 770.48 6209.66 833.01 6633.84 833.01 6841.88 708.84 7345.62 708.84 7481.97 666.32 7810.53 666.32 7952.75 753.86 8518.75 753.86 8739.05 787.07 9041.45 787.07 9393.91 853.04 9999.59 853.04"/><polyline class="mori" points="0.2 788.65 619.3 788.65 1008 618.65 1683.49 618.65 1912.65 748.65 2314.85 748.65 2438.9 683.65 2674.6 683.65 2751.4 708.65 3596.1 708.65 3688.73 627.65 4015.77 627.65 4104.56 712.65 4653.94 712.65 4789.47 821.65 5415.03 821.65 5564.57 734.65 5993.93 734.65 6209.66 809.65 6633.84 809.65 6841.88 660.65 7345.62 660.65 7481.97 609.65 7810.53 609.65 7952.75 714.65 8518.75 714.65 8739.05 754.65 9041.45 754.65 9393.91 833.65 9999.59 833.65"/><polyline class="mori" points="0.2 761.86 619.3 761.86 1008 563.47 1683.49 563.47 1912.65 715.11 2314.85 715.11 2438.9 639.26 2674.6 639.26 2751.4 668.58 3596.1 668.58 3688.73 574.09 4015.77 574.09 4104.56 673.19 4653.94 673.19 4789.47 800.32 5415.03 800.32 5564.57 698.82 5993.93 698.82 6209.66 786.28 6633.84 786.28 6841.88 612.46 7345.62 612.46 7481.97 552.98 7810.53 552.98 7952.75 675.43 8518.75 675.43 8739.05 722.22 9041.45 722.22 9393.91 814.26 9999.59 814.26"/><polyline class="mori" points="0.2 708.29 619.3 708.29 1008 453.13 1683.49 453.13 1912.65 648.04 2314.85 648.04 2438.9 550.47 2674.6 550.47 2751.4 588.46 3596.1 588.46 3688.73 466.99 4015.77 466.99 4104.56 594.28 4653.94 594.28 4789.47 757.67 5415.03 757.67 5564.57 627.17 5993.93 627.17 6209.66 739.56 6633.84 739.56 6841.88 516.08 7345.62 516.08 7481.97 439.65 7810.53 439.65 7952.75 597 8518.75 597 8739.05 657.38 9041.45 657.38 9393.91 775.48 9999.59 775.48"/><polyline class="mori" points="0.2 681.5 619.3 681.5 1008 397.95 1683.49 397.95 1912.65 614.5 2314.85 614.5 2438.9 506.08 2674.6 506.08 2751.4 548.39 3596.1 548.39 3688.73 413.43 4015.77 413.43 4104.56 554.82 4653.94 554.82 4789.47 736.35 5415.03 736.35 5564.57 591.34 5993.93 591.34 6209.66 716.2 6633.84 716.2 6841.88 467.89 7345.62 467.89 7481.97 382.98 7810.53 382.98 7952.75 557.78 8518.75 557.78 8739.05 624.95 9041.45 624.95 9393.91 756.09 9999.59 756.09"/><polyline class="mori" points="0.2 654.71 619.3 654.71 1008 342.78 1683.49 342.78 1912.65 580.97 2314.85 580.97 2438.9 461.69 2674.6 461.69 2751.4 508.33 3596.1 508.33 3688.73 359.88 4015.77 359.88 4104.56 515.36 4653.94 515.36 4789.47 715.02 5415.03 715.02 5564.57 555.51 5993.93 555.51 6209.66 692.83 6633.84 692.83 6841.88 419.7 7345.62 419.7 7481.97 326.31 7810.53 326.31 7952.75 518.57 8518.75 518.57 8739.05 592.53 9041.45 592.53 9393.91 736.7 9999.59 736.7"/><polyline class="mori" points="0.2 627.93 619.3 627.93 1008 287.6 1683.49 287.6 1912.65 547.43 2314.85 547.43 2438.9 417.3 2674.6 417.3 2751.4 468.26 3596.1 468.26 3688.73 306.33 4015.77 306.33 4104.56 475.9 4653.94 475.9 4789.47 693.69 5415.03 693.69 5564.57 519.68 5993.93 519.68 6209.66 669.47 6633.84 669.47 6841.88 371.51 7345.62 371.51 7481.97 269.65 7810.53 269.65 7952.75 479.35 8518.75 479.35 8739.05 560.1 9041.45 560.1 9393.91 717.31 9999.59 717.31"/><polyline class="mori" points="0.2 735.07 619.3 735.07 1008 508.3 1683.49 508.3 1912.65 681.58 2314.85 681.58 2438.9 594.86 2674.6 594.86 2751.4 628.52 3596.1 628.52 3688.73 520.54 4015.77 520.54 4104.56 633.73 4653.94 633.73 4789.47 779 5415.03 779 5564.57 662.99 5993.93 662.99 6209.66 762.92 6633.84 762.92 6841.88 564.27 7345.62 564.27 7481.97 496.31 7810.53 496.31 7952.75 636.22 8518.75 636.22 8739.05 689.8 9041.45 689.8 9393.91 794.87 9999.59 794.87"/><polyline class="mori" points="0.2 842.22 619.3 842.22 1008 729 1683.49 729 1912.65 815.72 2314.85 815.72 2438.9 772.43 2674.6 772.43 2751.4 788.78 3596.1 788.78 3688.73 734.75 4015.77 734.75 4104.56 791.56 4653.94 791.56 4789.47 864.3 5415.03 864.3 5564.57 806.3 5993.93 806.3 6209.66 856.37 6633.84 856.37 6841.88 757.03 7345.62 757.03 7481.97 722.98 7810.53 722.98 7952.75 793.08 8518.75 793.08 8739.05 819.5 9041.45 819.5 9393.91 872.43 9999.59 872.43"/><polyline class="mori" points="0.2 922.58 619.3 922.58 1008 894.52 1683.49 894.52 1912.65 916.33 2314.85 916.33 2438.9 905.61 2674.6 905.61 2751.4 908.97 3596.1 908.97 3688.73 895.41 4015.77 895.41 4104.56 909.93 4653.94 909.93 4789.47 928.28 5415.03 928.28 5564.57 913.78 5993.93 913.78 6209.66 926.46 6633.84 926.46 6841.88 901.6 7345.62 901.6 7481.97 892.98 7810.53 892.98 7952.75 910.73 8518.75 910.73 8739.05 916.77 9041.45 916.77 9393.91 930.6 9999.59 930.6"/></svg>
