<svg id="Ebene_1" data-name="Ebene 1" xmlns="http://www.w3.org/2000/svg" viewBox="0 0 500 500"><title>favicon</title><path d="M162.24,59.82V199.13h48v19.32H94.69V199.13h48V59.82h-48V40.5H210.22V59.82Z"/><path d="M271.38,40.5h73.33c37.88,0,51.35,25.17,51.35,48.81,0,17.29-8.14,31-19.58,38.13,16.27,8.14,23.9,24.92,23.9,41.19,0,24.66-13.22,49.82-51.35,49.82H271.38Zm73.33,19.32H291v59h53.75c20.08,0,31.52-12.46,31.52-29.49S364.79,59.82,344.71,59.82ZM291,138.12v61H349c19.32,0,31.52-11.44,31.52-30.5s-12.2-30.51-31.52-30.51Z"/><path d="M190.61,280.4h19.7V459.5h-19.7V378.65H114.37V459.5H94.67V280.4h19.7v78.8h76.24Z"/><path d="M291,459.5H271.26V280.4H291v97.23l82.64-97.23h25.07l-62.94,73.69L405.33,459.5H382.05l-59.36-90.06L291,406.79Z"/></svg>