<?xml version="1.0" encoding="UTF-8" standalone="no"?>
<!DOCTYPE svg  PUBLIC '-//W3C//DTD SVG 1.1//EN'  'http://www.w3.org/Graphics/SVG/1.1/DTD/svg11.dtd'>
<svg version="1.1" xmlns="http://www.w3.org/2000/svg">
<defs>
<font id="SimplonMono-BoldItalic" horiz-adv-x="608">
<font-face ascent="806" cap-height="700" slope="-12" panose-1="2 11 8 9 3 0 0 0 0 0" unicode-range="U+0020-00FE" units-per-em="1000" underline-position="-100" descent="-194" font-weight="700" underline-thickness="100" font-style="italic" stemv="130" stemh="116" bbox="-64 -194 713 880" font-family="SimplonMono-BoldItalic" x-height="516"/>
<missing-glyph/>
<glyph unicode=" " glyph-name="space"/>
<glyph unicode="!" d="M464 700l-100 -470h-132l100 470h132zM169 0l34 160h160l-34 -160h-160z" glyph-name="exclam"/>
<glyph unicode='&quot;' d="M516 476h-53v224h53v-224zM273 476h-53v224h53v-224z" glyph-name="quotedbl"/>
<glyph unicode="#" d="M538 216h-93l-53 -216h-47l53 216h-211l-53 -216h-47l53 216h-71v45h82l44 178h-81v45h92l54 216h47l-54 -216h211l54 216h47l-54 -216h72v-45h-83l-44 -178h82v-45zM242 439l-44 -178h211l44 178h-211z" glyph-name="numbersign"/>
<glyph unicode="$" d="M210 -100l20 96c-98 19 -167 91 -167 192c0 11 0 22 2 33h129c-1 -6 -1 -12 -1 -18c0 -56 37 -97 98 -97c71 0 94 46 94 92c0 36 -16 72 -69 91l-56 20c-100 36 -127 122 -127 185c0 70 31 216 236 216c4 0 8 -1 12 -1l20 91h43l-21 -96c87 -20 155 -88 155 -179 c0 -5 0 -7 -1 -16h-128v8c0 58 -50 77 -92 77c-51 0 -96 -30 -96 -89c0 -35 19 -67 71 -85l56 -20c87 -31 125 -118 125 -184c0 -75 -28 -226 -227 -226h-14l-19 -90h-43z" glyph-name="dollar"/>
<glyph unicode="%" d="M75 567c0 76 61 138 137 138s138 -62 138 -138s-62 -137 -138 -137s-137 61 -137 137zM300 132c0 76 61 138 137 138s138 -62 138 -138s-62 -137 -138 -137s-137 61 -137 137zM171 567c0 -24 16 -43 41 -43s42 19 42 43s-17 44 -42 44s-41 -20 -41 -44zM396 132 c0 -24 16 -43 41 -43s42 19 42 43s-17 44 -42 44s-41 -20 -41 -44zM92 150l434 435l32 -32l-434 -435z" glyph-name="percent"/>
<glyph unicode="&amp;" d="M394 -5l-17 47c-25 -28 -76 -52 -136 -52c-108 0 -203 73 -203 195c0 107 55 190 150 224c17 6 36 10 55 13l-56 162l25 116h369l-25 -116h-235l103 -294l60 78l107 -70l-118 -151l34 -95zM333 170l-52 144c-9 0 -19 -1 -27 -3c-55 -12 -88 -64 -88 -122 c0 -54 36 -83 78 -83c44 0 77 38 89 64z" glyph-name="ampersand"/>
<glyph unicode="&apos;" d="M400 476h-53v224h53v-224z" glyph-name="quotesingle"/>
<glyph unicode="(" d="M333 597c14 66 37 103 124 103h123l-9 -42h-119c-48 0 -67 -20 -77 -67c-83 -389 -127 -588 -127 -605c0 -25 14 -36 47 -36h125l-9 -42h-125c-58 0 -81 32 -81 75c0 20 12 70 128 614z" glyph-name="parenleft"/>
<glyph unicode=")" d="M295 11c-14 -66 -37 -103 -124 -103h-123l9 42h119c48 0 67 20 77 67c83 389 127 588 127 605c0 25 -14 36 -47 36h-125l9 42h125c58 0 81 -32 81 -75c0 -20 -12 -70 -128 -614z" glyph-name="parenright"/>
<glyph unicode="*" d="M339 467l-122 -127l-34 27l125 131l-145 50l20 40l143 -50l35 162h45l-35 -162l165 50l4 -46l-164 -49l67 -129l-40 -24z" glyph-name="asterisk"/>
<glyph unicode="+" d="M287 82v176h-176v45h176v175h45v-175h175v-45h-175v-176h-45z" glyph-name="plus"/>
<glyph unicode="," d="M185 -166l-85 85l204 203l85 -85z" glyph-name="comma"/>
<glyph unicode="-" d="M445 258h-290l9 45h290z" glyph-name="hyphen"/>
<glyph unicode="." d="M170 0l35 160h160l-35 -160h-160z" glyph-name="period"/>
<glyph unicode="/" d="M558 705l37 -26l-472 -684l-37 26z" glyph-name="slash"/>
<glyph unicode="0" d="M121 480c30 146 107 230 257 230c108 0 203 -78 203 -200c0 -44 -48 -256 -55 -290c-31 -146 -107 -230 -257 -230c-108 0 -203 78 -203 200c0 44 48 256 55 290zM392 212l44 203l-239 -197c-2 -14 -3 -21 -3 -24c0 -54 36 -88 88 -88c62 0 98 52 110 106zM453 506 c0 54 -36 88 -88 88c-62 0 -98 -52 -110 -106c-21 -94 -35 -158 -44 -202l239 197c2 15 3 20 3 23z" glyph-name="zero"/>
<glyph unicode="1" d="M514 0h-495l23 116h182l82 385l-100 -83l-78 100l221 182h132l-125 -584h182z" glyph-name="one"/>
<glyph unicode="2" d="M266 415l-100 -79c-26 33 -41 75 -41 124c0 140 93 250 255 250c108 0 203 -78 203 -199c0 -85 -43 -156 -126 -223l-211 -172h258l-24 -116h-460l24 116l333 271c51 42 78 86 78 119c0 54 -36 88 -88 88c-71 0 -114 -63 -114 -130c0 -19 5 -36 13 -49z" glyph-name="two"/>
<glyph unicode="3" d="M310 325l23 110h9c48 0 75 49 75 96c0 40 -15 63 -55 63c-42 0 -68 -38 -74 -79h-130c10 118 90 195 219 195c106 0 170 -92 170 -170c0 -76 -27 -136 -77 -174c28 -32 45 -74 45 -126c0 -140 -93 -250 -255 -250c-108 0 -203 78 -203 200c0 10 1 20 2 30h128 c-1 -8 -2 -17 -2 -26c0 -54 36 -88 88 -88c71 0 114 63 114 130c0 51 -31 85 -77 89z" glyph-name="three"/>
<glyph unicode="4" d="M438 705l96 -83l-321 -347h131l30 144h132l-30 -144h73l-26 -116h-73l-33 -159h-132l33 159h-301l24 116z" glyph-name="four"/>
<glyph unicode="5" d="M335 584l-56 -129c14 2 29 3 44 3c108 0 204 -78 204 -200c0 -7 0 -20 -4 -38c-31 -146 -106 -230 -256 -230c-108 0 -204 78 -204 200c0 6 0 16 2 30h132c-2 -11 -5 -22 -5 -26c0 -54 36 -88 88 -88c62 0 99 52 110 106c3 15 8 36 8 42c0 54 -36 88 -88 88 c-41 0 -72 -23 -91 -55c0 1 -113 89 -113 89l140 324h334l-24 -116h-221z" glyph-name="five"/>
<glyph unicode="6" d="M67 228c13 75 44 130 84 173l288 304l96 -82l-161 -171c9 -2 15 -4 21 -6c75 -26 133 -94 133 -188c0 -7 0 -20 -4 -38c-31 -146 -106 -230 -256 -230c-108 0 -204 78 -204 200c0 7 0 20 3 38zM391 212c3 15 8 36 8 42c0 54 -36 88 -88 88c-62 0 -99 -52 -110 -106 c-3 -15 -8 -36 -8 -42c0 -54 36 -88 88 -88c62 0 99 52 110 106z" glyph-name="six"/>
<glyph unicode="7" d="M171 700h454l-25 -116l-344 -589l-120 48l316 541h-173l-24 -114h-132z" glyph-name="seven"/>
<glyph unicode="8" d="M556 540c0 -76 -27 -136 -77 -174c28 -32 45 -75 45 -126c0 -140 -93 -250 -255 -250c-108 0 -203 78 -203 200c0 96 43 175 123 216c-15 26 -23 55 -23 83c0 132 82 221 220 221c106 0 170 -92 170 -170zM282 106c71 0 114 63 114 130c0 54 -36 88 -88 88 c-71 0 -114 -63 -114 -130c0 -54 36 -88 88 -88zM296 498c0 -40 15 -63 55 -63c48 0 75 49 75 96c0 40 -15 63 -55 63c-48 0 -75 -49 -75 -96z" glyph-name="eight"/>
<glyph unicode="9" d="M581 472c-13 -75 -44 -130 -84 -173l-288 -304l-96 82l161 171c-9 2 -15 4 -21 6c-75 26 -133 94 -133 188c0 7 0 20 4 38c31 146 106 230 256 230c108 0 204 -78 204 -200c0 -7 0 -20 -3 -38zM257 488c-3 -15 -8 -36 -8 -42c0 -54 36 -88 88 -88c62 0 99 52 110 106 c3 15 8 36 8 42c0 54 -36 88 -88 88c-62 0 -99 -52 -110 -106z" glyph-name="nine"/>
<glyph unicode=":" d="M235 308l35 160h160l-35 -160h-160zM170 0l35 160h160l-35 -160h-160z" glyph-name="colon"/>
<glyph unicode=";" d="M134 -166l-85 85l204 203l85 -85zM235 308l35 160h160l-35 -160h-160z" glyph-name="semicolon"/>
<glyph unicode="&lt;" d="M454 499l-239 -239l239 -239l-32 -31l-270 270l270 270z" glyph-name="less"/>
<glyph unicode="=" d="M507 155h-396v45h396v-45zM507 350h-396v45h396v-45z" glyph-name="equal"/>
<glyph unicode="&gt;" d="M393 260l-239 239l32 31l270 -270l-270 -270l-32 31z" glyph-name="greater"/>
<glyph unicode="?" d="M258 395h74c71 0 114 63 114 123c0 47 -36 81 -88 81c-62 0 -103 -49 -112 -106h-129c12 126 103 217 254 217c108 0 203 -73 203 -188c0 -120 -75 -221 -208 -240l-11 -52h-132zM163 0l34 160h160l-34 -160h-160z" glyph-name="question"/>
<glyph unicode="@" d="M130 150v12c0 101 59 160 170 160h37v46c0 25 -12 43 -38 43s-37 -18 -37 -43v-14h-132v16c0 101 59 160 170 160c110 0 169 -59 169 -160v-308c0 -17 8 -30 28 -30c19 0 28 13 28 30v389c0 129 -80 217 -221 217s-221 -88 -221 -217v-381c0 -129 80 -217 221 -217v-42 c-168 0 -264 104 -264 259v381c0 155 96 259 264 259s264 -104 264 -259v-390c0 -41 -23 -71 -71 -71c-43 0 -65 27 -69 60c-31 -37 -76 -60 -128 -60c-111 0 -170 59 -170 160zM337 152v61h-38c-26 0 -37 -18 -37 -43v-18c0 -25 11 -43 37 -43s38 18 38 43z" glyph-name="at"/>
<glyph unicode="A" d="M398 266l-33 229l-130 -229h163zM415 142h-251l-81 -142h-147l398 700h128l101 -700h-127z" glyph-name="A"/>
<glyph unicode="B" d="M159 130h176c55 0 103 31 103 89c0 38 -23 70 -77 70h-169zM-2 0l148 700h282c134 0 190 -97 190 -184c0 -64 -32 -140 -100 -176c34 -31 54 -70 54 -116c0 -148 -95 -224 -259 -224h-315zM220 419h165c59 0 99 38 99 85c0 35 -18 66 -75 66h-157z" glyph-name="B"/>
<glyph unicode="C" d="M614 466h-132c2 12 2 14 2 17c0 63 -41 97 -115 97c-73 0 -130 -45 -148 -126c-5 -23 -48 -211 -48 -237c0 -63 41 -97 115 -97c69 0 124 41 145 114h135c-34 -147 -106 -244 -297 -244c-150 0 -232 95 -232 204c0 49 37 211 47 257c33 155 102 259 300 259 c150 0 232 -95 232 -204c0 -10 -1 -24 -4 -40z" glyph-name="C"/>
<glyph unicode="D" d="M272 0h-282l148 700h245c150 0 232 -95 232 -204c0 -49 -33 -191 -43 -237c-33 -155 -102 -259 -300 -259zM150 130h139c73 0 130 45 148 126c5 23 44 191 44 217c0 63 -41 97 -115 97h-122z" glyph-name="D"/>
<glyph unicode="E" d="M301 570l-32 -151h223l-28 -130h-223l-34 -159h292l-27 -130h-425l148 700h425l-28 -130h-291z" glyph-name="E"/>
<glyph unicode="F" d="M319 570l-32 -151h223l-28 -130h-223l-61 -289h-133l148 700h426l-29 -130h-291z" glyph-name="F"/>
<glyph unicode="G" d="M438 269h-130l28 130h264c-11 -59 -26 -124 -32 -150c-34 -155 -102 -259 -300 -259c-150 0 -232 95 -232 204c0 49 37 211 47 257c33 155 102 259 300 259c150 0 232 -95 232 -204c0 -7 -1 -16 -2 -27h-132v4c0 63 -41 97 -115 97c-73 0 -130 -45 -148 -126 c-5 -23 -48 -211 -48 -237c0 -63 41 -97 115 -97c73 0 130 45 148 126z" glyph-name="G"/>
<glyph unicode="H" d="M469 419l59 281h133l-148 -700h-133l61 289h-262l-61 -289h-133l148 700h133l-59 -281h262z" glyph-name="H"/>
<glyph unicode="I" d="M462 0h-426l28 130h145l93 440h-145l27 130h427l-28 -130h-148l-93 -440h148z" glyph-name="I"/>
<glyph unicode="J" d="M22 200h135c7 -52 47 -80 114 -80c73 0 131 45 148 126l69 324h-291l27 130h426l-96 -451c-33 -155 -102 -259 -300 -259c-150 0 -232 95 -232 204v6z" glyph-name="J"/>
<glyph unicode="K" d="M160 197l-41 -197h-133l148 700h133l-59 -284l302 284h188l-308 -289l184 -411h-143l-141 316z" glyph-name="K"/>
<glyph unicode="L" d="M336 700l-122 -570h292l-27 -130h-425l148 700h134z" glyph-name="L"/>
<glyph unicode="M" d="M333 188h-88l-33 270l-98 -458h-128l148 700h138l44 -363l208 363h138l-149 -700h-129l94 441z" glyph-name="M"/>
<glyph unicode="N" d="M662 700l-149 -700h-134l-159 475l-101 -475h-133l148 700h134l159 -475l101 475h134z" glyph-name="N"/>
<glyph unicode="O" d="M81 451c33 155 102 259 300 259c150 0 232 -95 232 -204c0 -49 -37 -211 -47 -257c-33 -155 -102 -259 -300 -259c-150 0 -232 95 -232 204c0 49 37 211 47 257zM216 454c-5 -23 -48 -211 -48 -237c0 -63 41 -97 115 -97c73 0 130 45 148 126c5 23 48 211 48 237 c0 63 -41 97 -115 97c-73 0 -130 -45 -148 -126z" glyph-name="O"/>
<glyph unicode="P" d="M217 347h145c71 0 142 46 142 124c0 47 -33 99 -104 99h-136zM189 217l-46 -217h-133l148 700h269c133 0 211 -112 211 -219c0 -169 -110 -264 -297 -264h-152z" glyph-name="P"/>
<glyph unicode="Q" d="M80 451c33 155 102 259 300 259c150 0 232 -95 232 -204c0 -49 -37 -211 -47 -257c-14 -66 -34 -122 -68 -166l33 -44l-98 -79l-38 50c-35 -13 -78 -20 -129 -20c-150 0 -232 95 -232 204c0 49 37 211 47 257zM363 580c-72 0 -128 -44 -147 -122l196 -262 c8 15 14 31 18 50c5 23 48 211 48 237c0 63 -41 97 -115 97zM282 120c10 0 19 1 28 2l-130 174c-7 -37 -13 -70 -13 -79c0 -63 41 -97 115 -97z" glyph-name="Q"/>
<glyph unicode="R" d="M631 516c0 -73 -31 -197 -197 -223l110 -293h-137l-109 289h-98l-61 -289h-133l148 700h287c134 0 190 -97 190 -184zM228 419h170c59 0 99 38 99 85c0 35 -18 66 -75 66h-162z" glyph-name="R"/>
<glyph unicode="S" d="M289 -10c-144 0 -242 89 -242 223v8h134v-7c0 -55 53 -94 123 -94c53 0 98 29 98 81c0 35 -15 69 -67 84l-86 25c-85 25 -136 91 -136 181c0 151 89 219 247 219c143 0 221 -101 221 -198v-10h-135c-9 45 -36 78 -101 78s-98 -30 -98 -75c0 -39 27 -66 58 -75l86 -25 c87 -25 145 -93 145 -182c0 -151 -82 -233 -247 -233z" glyph-name="S"/>
<glyph unicode="T" d="M634 570h-195l-121 -570h-138l121 570h-195l27 130h529z" glyph-name="T"/>
<glyph unicode="U" d="M167 217c0 -63 42 -97 116 -97c73 0 131 45 149 126c17 73 96 454 96 454h133s-80 -378 -95 -451c-32 -155 -102 -259 -300 -259c-150 0 -233 95 -233 204c0 49 37 211 100 506h133c-57 -269 -99 -457 -99 -483z" glyph-name="U"/>
<glyph unicode="V" d="M282 196l281 504h150l-399 -700h-130l-101 700h131z" glyph-name="V"/>
<glyph unicode="W" d="M421 600l-28 -392l162 492h137l-249 -700h-134l32 420l-152 -420h-134l49 700h131l-49 -509l147 409h88z" glyph-name="W"/>
<glyph unicode="X" d="M404 0l-100 238l-195 -238h-167l306 366l-143 334h140l94 -224l185 224h167l-297 -352l150 -348h-140z" glyph-name="X"/>
<glyph unicode="Y" d="M370 255l-54 -255h-134l54 255l-153 445h138l101 -304l230 304h161z" glyph-name="Y"/>
<glyph unicode="Z" d="M511 0h-532l27 130l441 440h-342l27 130h522l-27 -130l-441 -440h352z" glyph-name="Z"/>
<glyph unicode="[" d="M185 -92l169 792h225l-9 -42h-182l-151 -708h182l-9 -42h-225z" glyph-name="bracketleft"/>
<glyph unicode="\" d="M63 679l37 26l472 -684l-37 -26z" glyph-name="backslash"/>
<glyph unicode="]" d="M442 700l-169 -792h-225l9 42h182l151 708h-182l9 42h225z" glyph-name="bracketright"/>
<glyph unicode="^" d="M573 403l-239 239l-239 -239l-31 32l270 270l270 -270z" glyph-name="asciicircum"/>
<glyph unicode="_" d="M423 -114h-396l9 45h396z" glyph-name="underscore"/>
<glyph unicode="`" d="M511 585l-264 72l10 48l264 -72z" glyph-name="grave"/>
<glyph unicode="a" d="M227 354h-133c36 115 103 176 240 176c124 0 206 -79 206 -195c0 -29 -13 -87 -21 -126l-45 -209h-132l12 53c-28 -39 -71 -63 -135 -63c-102 0 -171 68 -171 148c0 81 42 136 114 160c74 25 153 29 251 34v4c0 40 -23 78 -89 78c-44 0 -78 -23 -97 -60zM213 203 c-26 -11 -38 -25 -38 -51c0 -23 17 -49 72 -49c68 0 126 41 140 106l3 14c-76 -4 -149 -8 -177 -20z" glyph-name="a"/>
<glyph unicode="b" d="M303 700l-49 -233c12 22 51 63 118 63c119 0 174 -103 174 -194c0 -33 -13 -97 -21 -137c-30 -143 -99 -209 -220 -209c-68 0 -114 31 -136 74l-14 -64h-132l148 700h132zM222 315c-19 -89 -24 -111 -24 -121c0 -49 22 -85 88 -85c58 0 96 35 109 96c19 89 24 111 24 121 c0 49 -22 85 -88 85c-58 0 -96 -35 -109 -96z" glyph-name="b"/>
<glyph unicode="c" d="M549 336v-4h-128v4c0 41 -24 78 -88 78c-58 0 -96 -35 -109 -96c-19 -89 -26 -117 -26 -127c0 -49 22 -85 88 -85c53 0 89 30 105 82h132c-35 -129 -102 -198 -247 -198c-124 0 -206 79 -206 195c0 29 12 88 21 126c33 143 99 219 252 219c124 0 206 -79 206 -194z" glyph-name="c"/>
<glyph unicode="d" d="M343 0l11 53c-12 -22 -51 -63 -118 -63c-119 0 -174 103 -174 194c0 33 13 97 21 137c30 143 99 209 220 209c68 0 114 -31 136 -74l52 244h132l-148 -700h-132zM386 205c19 89 24 111 24 121c0 49 -22 85 -88 85c-58 0 -96 -35 -109 -96c-19 -89 -24 -111 -24 -121 c0 -49 22 -85 88 -85c58 0 96 35 109 96z" glyph-name="d"/>
<glyph unicode="e" d="M525 214h-328c-2 -11 -3 -19 -3 -23c0 -49 22 -85 88 -85c45 0 78 22 97 60h133c-36 -115 -103 -176 -240 -176c-124 0 -206 79 -206 195c0 29 12 88 21 126c33 143 99 219 252 219c124 0 206 -79 206 -195c0 -28 -11 -84 -20 -121zM417 320v9c0 49 -22 85 -88 85 c-57 0 -95 -36 -109 -94h197z" glyph-name="e"/>
<glyph unicode="f" d="M613 584h-179c-32 0 -44 -20 -49 -44l-5 -24h218l-25 -116h-217l-85 -400h-132l85 400h-147l25 116h146l11 52c17 78 80 132 164 132h214z" glyph-name="f"/>
<glyph unicode="g" d="M152 -3v-4c0 -35 26 -71 88 -71c58 0 96 35 109 96l15 72c-12 -22 -54 -63 -121 -63c-119 0 -174 103 -174 194c0 22 7 54 17 100c31 143 99 209 220 209c68 0 114 -31 136 -74l12 60h132l-104 -491c-30 -144 -99 -219 -252 -219c-124 0 -206 80 -206 187v4h128zM397 242 c11 56 16 74 16 84c0 49 -22 85 -88 85c-58 0 -96 -35 -109 -96c-13 -59 -16 -74 -16 -84c0 -49 22 -85 88 -85c58 0 97 35 109 96z" glyph-name="g"/>
<glyph unicode="h" d="M523 199l-43 -199h-132l44 205c19 89 25 111 25 121c0 49 -22 85 -88 85c-58 0 -96 -35 -109 -96l-68 -315h-132l149 700h132l-50 -233c12 22 52 63 119 63c129 0 174 -103 174 -194c0 -33 -12 -97 -21 -137z" glyph-name="h"/>
<glyph unicode="i" d="M499 0h-495l24 116h181l61 284h-132l25 116h263l-85 -400h182zM298 553l31 147h147l-31 -147h-147z" glyph-name="i"/>
<glyph unicode="j" d="M336 400h-218l25 116h349l-120 -568c-17 -78 -80 -132 -164 -132h-262l24 116h227c32 0 44 20 49 44zM353 553l31 147h147l-31 -147h-147z" glyph-name="j"/>
<glyph unicode="k" d="M316 700l-74 -346l183 162h176l-230 -203l147 -313h-139l-107 226l-71 -64l-34 -162h-132l149 700h132z" glyph-name="k"/>
<glyph unicode="l" d="M497 0h-495l24 116h181l99 468h-130l24 116h263l-124 -584h182z" glyph-name="l"/>
<glyph unicode="m" d="M195 366l-78 -366h-125l109 516h126l-5 -23c15 22 44 32 68 32s49 -9 62 -32c21 21 55 37 104 37c84 0 132 -64 132 -140c0 -21 -9 -67 -79 -390h-126c74 347 79 369 79 376c0 18 -12 28 -30 28c-22 0 -36 -14 -41 -38l-78 -366h-126c74 347 79 369 79 376 c0 18 -12 28 -30 28c-22 0 -36 -14 -41 -38z" glyph-name="m"/>
<glyph unicode="n" d="M523 199l-43 -199h-132l44 205c19 89 25 111 25 121c0 49 -22 85 -88 85c-58 0 -96 -35 -109 -96l-68 -315h-132l110 516h132l-11 -49c12 22 52 63 119 63c129 0 174 -103 174 -194c0 -33 -12 -97 -21 -137z" glyph-name="n"/>
<glyph unicode="o" d="M523 209c-33 -143 -99 -219 -252 -219c-124 0 -206 79 -206 195c0 29 12 88 21 126c33 143 99 219 252 219c124 0 206 -79 206 -195c0 -29 -12 -88 -21 -126zM219 318c-9 -40 -26 -115 -26 -133c0 -44 25 -79 88 -79c58 0 96 35 109 96c9 40 26 115 26 133 c0 44 -25 79 -88 79c-58 0 -95 -35 -109 -96z" glyph-name="o"/>
<glyph unicode="p" d="M265 516l-10 -49c12 22 51 63 118 63c119 0 174 -103 174 -194c0 -33 -13 -97 -21 -137c-30 -143 -99 -209 -220 -209c-68 0 -114 31 -136 74l-53 -248h-132l148 700h132zM223 315c-19 -89 -24 -111 -24 -121c0 -49 22 -85 88 -85c58 0 96 35 109 96c19 89 24 111 24 121 c0 49 -22 85 -88 85c-58 0 -96 -35 -109 -96z" glyph-name="p"/>
<glyph unicode="q" d="M305 -184l50 237c-12 -22 -51 -63 -118 -63c-119 0 -174 103 -174 194c0 33 13 97 21 137c30 143 99 209 220 209c68 0 114 -31 136 -74l13 60h132l-148 -700h-132zM387 205c19 89 24 111 24 121c0 49 -22 85 -88 85c-58 0 -96 -35 -109 -96c-19 -89 -24 -111 -24 -121 c0 -49 22 -85 88 -85c58 0 96 35 109 96z" glyph-name="q"/>
<glyph unicode="r" d="M-22 0l24 116h162l61 284h-114l25 116h245l-13 -54c12 22 52 63 119 63h120l-26 -124h-136c-58 0 -96 -35 -109 -96l-40 -189h174l-24 -116h-468z" glyph-name="r"/>
<glyph unicode="s" d="M283 -10c-114 0 -206 70 -206 168v9h128v-4c0 -37 43 -59 93 -59c33 0 76 12 76 44c0 25 -20 35 -46 42l-72 19c-65 17 -127 65 -127 147c0 119 92 174 209 174c91 0 189 -63 189 -159v-8h-128v3c-1 30 -37 50 -76 50c-38 0 -66 -16 -66 -43c0 -25 21 -35 39 -40l80 -21 c73 -19 128 -68 128 -144c0 -124 -79 -178 -221 -178z" glyph-name="s"/>
<glyph unicode="t" d="M221 400h-147l24 116h147l25 117h132l-25 -117h216l-24 -116h-216c-41 -191 -53 -250 -53 -259c0 -15 10 -25 30 -25h178l-24 -116h-186c-91 0 -128 52 -128 121c0 38 17 123 51 279z" glyph-name="t"/>
<glyph unicode="u" d="M281 109c54 0 92 36 105 96l67 311h132l-110 -516h-132l12 53c-10 -19 -54 -63 -119 -63c-116 0 -169 97 -169 189c0 35 10 92 19 132l44 205h132l-43 -201c-11 -49 -24 -108 -24 -121c0 -48 22 -85 86 -85z" glyph-name="u"/>
<glyph unicode="v" d="M280 185l187 331h146l-295 -516h-136l-77 516h132z" glyph-name="v"/>
<glyph unicode="w" d="M377 436l-15 -281l115 361h136l-192 -516h-123l12 279l-108 -279h-123l26 516h135l-38 -353l104 273h71z" glyph-name="w"/>
<glyph unicode="x" d="M314 371l126 145h164l-229 -261l115 -255h-138l-63 146l-127 -146h-164l230 265l-114 251h137z" glyph-name="x"/>
<glyph unicode="y" d="M180 4l-76 512h132l43 -325l182 325h151l-323 -565c-45 -78 -65 -135 -157 -135h-109l23 116h67c24 0 34 12 40 23z" glyph-name="y"/>
<glyph unicode="z" d="M522 400l-274 -284h221l-24 -116h-394l25 116l274 284h-208l24 116h381z" glyph-name="z"/>
<glyph unicode="{" d="M256 247c0 24 -13 36 -54 36h-10l9 42h10c53 0 68 20 77 61l45 211c14 66 37 103 124 103h123l-9 -42h-119c-48 0 -67 -20 -77 -67l-44 -205c-8 -37 -18 -71 -50 -86c14 -11 18 -24 18 -45c0 -37 -51 -241 -51 -269c0 -25 14 -36 47 -36h125l-9 -42h-125 c-58 0 -81 32 -81 75c0 32 51 237 51 264z" glyph-name="braceleft"/>
<glyph unicode="|" d="M282 -100v800h43v-800h-43z" glyph-name="bar"/>
<glyph unicode="}" d="M372 361c0 -24 13 -36 54 -36h10l-9 -42h-10c-53 0 -68 -20 -77 -61l-45 -211c-14 -66 -37 -103 -124 -103h-123l9 42h119c48 0 67 20 77 67l44 205c8 37 18 71 50 86c-14 11 -18 24 -18 45c0 37 51 241 51 269c0 25 -14 36 -47 36h-125l9 42h125c58 0 81 -32 81 -75 c0 -32 -51 -237 -51 -264z" glyph-name="braceright"/>
<glyph unicode="~" d="M513 304l-159 -86l-102 73l-135 -73l-21 38l159 86l102 -73l135 73z" glyph-name="asciitilde"/>
<glyph unicode=" " glyph-name="uni00A0"/>
<glyph unicode="¡" d="M144 -184l100 470h132l-100 -470h-132zM439 516l-34 -160h-160l34 160h160z" glyph-name="exclamdown"/>
<glyph unicode="¢" d="M334 484l29 136h43l-29 -136h-43zM210 -100l30 140h43l-30 -140h-43zM549 336v-4h-128v4c0 41 -24 78 -88 78c-58 0 -96 -35 -109 -96c-19 -89 -26 -117 -26 -127c0 -49 22 -85 88 -85c53 0 89 30 105 82h132c-35 -129 -102 -198 -247 -198c-124 0 -206 79 -206 195 c0 29 12 88 21 126c33 143 99 219 252 219c124 0 206 -79 206 -194z" glyph-name="cent"/>
<glyph unicode="£" d="M69 372h64l26 119c31 143 99 219 252 219c123 0 206 -79 206 -183c0 -9 -2 -26 -5 -46h-128c3 19 5 33 5 39c0 40 -25 74 -88 74c-58 0 -96 -35 -109 -96l-27 -126h196l-9 -43h-197l-45 -213h329l-25 -116h-523l25 116h62l46 213h-64z" glyph-name="sterling"/>
<glyph unicode="¤" d="M580 50l-84 84c-47 -40 -108 -64 -175 -64s-128 24 -175 64l-84 -84l-31 30l84 85c-40 47 -64 108 -64 175s24 128 64 175l-84 85l31 30l84 -85c47 41 108 65 175 65s128 -24 175 -65l84 85l31 -30l-85 -85c41 -47 65 -108 65 -175s-24 -128 -65 -175l85 -85zM170 340 c0 -83 68 -151 151 -151s151 68 151 151s-68 151 -151 151s-151 -68 -151 -151z" glyph-name="currency"/>
<glyph unicode="¥" d="M351 173h132l-9 -43h-132l-27 -130h-132l27 130h-131l9 43h131l18 82h-132l9 43h108l-139 402h134l104 -311l237 311h155l-311 -402h107l-9 -43h-131z" glyph-name="yen"/>
<glyph unicode="¦" d="M283 -100v339h43v-339h-43zM283 361v339h43v-339h-43z" glyph-name="brokenbar"/>
<glyph unicode="§" d="M310 80l-109 40c-43 16 -108 53 -108 134c0 96 57 145 141 165c-28 27 -48 68 -48 116c0 107 79 175 192 175c100 0 169 -63 169 -148c0 -4 0 -5 -1 -14h-45v8c0 67 -55 112 -127 112c-75 0 -142 -48 -142 -127c0 -47 26 -91 65 -105l109 -40c43 -16 108 -53 108 -134 c0 -96 -58 -145 -142 -166c28 -26 49 -67 49 -115c0 -107 -79 -175 -192 -175c-100 0 -169 63 -169 148c0 4 0 14 2 24h45l-1 -18c0 -67 55 -112 127 -112c75 0 142 48 142 127c0 47 -26 91 -65 105zM387 353l-85 31c-81 -1 -163 -43 -163 -120c0 -51 35 -85 81 -101l84 -31 c81 1 164 43 164 120c0 51 -35 85 -81 101z" glyph-name="section"/>
<glyph unicode="¨" d="M219 607l17 76h76l-17 -76h-76zM455 607l17 76h76l-17 -76h-76z" glyph-name="dieresis"/>
<glyph unicode="©" d="M544 249v202c0 129 -80 217 -221 217s-221 -88 -221 -217v-202c0 -129 80 -217 221 -217s221 88 221 217zM587 451v-202c0 -155 -96 -259 -264 -259s-264 104 -264 259v202c0 155 96 259 264 259s264 -104 264 -259zM323 168c-97 0 -146 57 -146 137v86 c0 80 49 136 146 136c96 0 145 -54 147 -133h-94c-3 24 -24 41 -53 41c-30 0 -53 -18 -53 -44v-86c0 -27 23 -45 53 -45c29 0 50 16 53 41h94c-2 -79 -51 -133 -147 -133z" glyph-name="copyright"/>
<glyph unicode="ª" d="M315 387c56 0 91 39 100 77l1 7c-52 -3 -117 -7 -132 -16c-16 -8 -20 -18 -20 -34c0 -11 7 -34 51 -34zM288 294c-76 0 -132 55 -132 115s36 106 79 122c60 23 120 26 199 30c-1 19 -10 54 -65 54c-30 0 -53 -15 -68 -41h-112c29 90 82 137 187 137 c103 0 166 -68 166 -161c0 -13 -10 -60 -14 -80l-36 -168h-112l9 39c-23 -32 -53 -47 -101 -47zM472 207h-363l10 45h363z" glyph-name="ordfeminine"/>
<glyph unicode="«" d="M229 48l-165 210l254 210l29 -34l-221 -182l137 -176zM454 48l-165 210l254 210l29 -34l-221 -182l137 -176z" glyph-name="guillemotleft"/>
<glyph unicode="¬" d="M111 258v45h396v-221h-45v176h-351z" glyph-name="logicalnot"/>
<glyph unicode="­" d="M445 258h-290l9 45h290z" glyph-name="uni00AD"/>
<glyph unicode="®" d="M587 451v-202c0 -155 -96 -259 -264 -259s-264 104 -264 259v202c0 155 96 259 264 259s264 -104 264 -259zM544 249v202c0 129 -80 217 -221 217s-221 -88 -221 -217v-202c0 -129 80 -217 221 -217s221 88 221 217zM486 173h-107l-76 130h-21v-130h-93v349h166 c79 0 120 -40 120 -109c0 -53 -24 -89 -70 -103zM282 430v-36h75c18 0 25 6 25 18s-7 18 -25 18h-75z" glyph-name="registered"/>
<glyph unicode="¯" d="M534 620h-312l11 50h312z" glyph-name="macron"/>
<glyph unicode="°" d="M212 549c0 86 70 156 156 156s156 -70 156 -156s-70 -156 -156 -156s-156 70 -156 156zM255 549c0 -63 50 -114 113 -114s113 51 113 114s-50 114 -113 114s-113 -51 -113 -114z" glyph-name="degree"/>
<glyph unicode="±" d="M287 229v121h-176v45h176v121h45v-121h175v-45h-175v-121h-45zM507 155h-396v45h396v-45z" glyph-name="plusminus"/>
<glyph unicode="²" d="M345 644l-72 -55c-13 20 -20 44 -20 74c0 84 54 150 156 150c63 0 125 -45 125 -125c0 -47 -22 -91 -77 -131l-103 -76h138l-16 -80h-284l17 80l193 147c31 23 41 47 41 58c0 31 -19 47 -43 47c-36 0 -57 -30 -57 -69c0 -7 1 -14 2 -20z" glyph-name="twosuperior"/>
<glyph unicode="³" d="M341 395c-64 0 -125 45 -125 127c0 5 0 10 1 15h90c0 -4 -1 -9 -1 -14c0 -30 20 -47 44 -47c36 0 57 30 57 69c0 28 -17 43 -38 46l16 75h4c16 0 24 19 24 40c0 18 -5 26 -16 26c-14 0 -22 -14 -24 -32h-93c5 69 51 113 128 113c61 0 98 -59 98 -102 c0 -38 -11 -68 -33 -91c15 -19 24 -42 24 -75c0 -83 -55 -150 -156 -150z" glyph-name="threesuperior"/>
<glyph unicode="´" d="M510 651l-264 -72l12 54l264 72z" glyph-name="acute"/>
<glyph unicode="¶" d="M286 300h-10c-95 0 -161 82 -161 176c0 130 100 224 246 224h206l-167 -787h-43l158 745h-110l-158 -745h-43z" glyph-name="paragraph"/>
<glyph unicode="·" d="M212 205l35 160h160l-35 -160h-160z" glyph-name="periodcentered"/>
<glyph unicode="¸" d="M126 -134h84l18 84h50l-29 -134h-134z" glyph-name="cedilla"/>
<glyph unicode="¹" d="M303 625l-55 70l135 112h93l-69 -326h105l-16 -80h-304l16 80h106l39 185z" glyph-name="onesuperior"/>
<glyph unicode="º" d="M339 390c43 0 69 25 79 73c7 32 18 79 18 93c0 31 -15 59 -64 59c-42 0 -68 -25 -79 -73c-7 -32 -18 -79 -18 -93c0 -31 16 -59 64 -59zM333 294c-104 0 -166 68 -166 161c0 13 8 61 13 80c28 115 79 176 199 176c104 0 166 -68 166 -161c0 -13 -9 -61 -14 -80 c-27 -115 -79 -176 -198 -176zM475 207h-365l10 45h365z" glyph-name="ordmasculine"/>
<glyph unicode="»" d="M154 468l165 -210l-254 -210l-29 34l221 182l-137 176zM379 468l165 -210l-254 -210l-29 34l221 182l-137 176z" glyph-name="guillemotright"/>
<glyph unicode="¼" d="M142 603l-25 32l79 65h42l-48 -221h69l-9 -40h-178l9 40h67l34 158zM105 207l392 324l26 -33l-392 -324zM490 0h-42l13 63h-115l9 40l150 160l30 -26l-126 -134h61l11 53h42l-11 -53h27l-9 -40h-27z" glyph-name="onequarter"/>
<glyph unicode="½" d="M142 603l-25 32l79 65h42l-48 -221h69l-9 -40h-178l9 40h67l34 158zM105 207l392 324l26 -33l-392 -324zM410 154l-31 -26c-10 12 -17 28 -17 44c0 51 34 93 91 93c39 0 72 -32 72 -70c0 -36 -16 -58 -46 -83l-84 -72h99l-9 -40h-162l9 40l116 99c21 18 36 31 36 53 c0 19 -13 33 -34 33c-28 0 -47 -22 -47 -50c0 -8 2 -15 7 -21z" glyph-name="onehalf"/>
<glyph unicode="¾" d="M170 435c-39 0 -74 32 -74 70c0 4 0 5 1 11h41c-1 -3 -1 -5 -1 -8c0 -19 15 -33 36 -33c28 0 45 22 45 50c0 17 -13 32 -32 33l8 38h4c22 0 37 16 37 40c0 14 -11 28 -28 28c-22 0 -35 -13 -37 -34h-41c3 42 31 74 81 74c35 0 65 -27 65 -65c0 -29 -11 -54 -32 -68 c10 -12 16 -27 16 -43c0 -51 -32 -93 -89 -93zM105 207l392 324l26 -33l-392 -324zM490 0h-42l13 63h-115l9 40l150 160l30 -26l-126 -134h61l11 53h42l-11 -53h27l-9 -40h-27z" glyph-name="threequarters"/>
<glyph unicode="¿" d="M350 121h-80c-68 -3 -108 -65 -108 -123c0 -47 36 -81 88 -81c62 0 103 49 112 106h129c-12 -126 -103 -217 -254 -217c-108 0 -203 73 -203 188c0 119 75 221 208 240l11 52h132zM445 516l-34 -160h-160l34 160h160z" glyph-name="questiondown"/>
<glyph unicode="À" d="M398 266l-33 229l-130 -229h163zM415 142h-251l-81 -142h-147l398 700h128l101 -700h-127zM546 739l-264 72l10 48l264 -72z" glyph-name="Agrave"/>
<glyph unicode="Á" d="M398 266l-33 229l-130 -229h163zM415 142h-251l-81 -142h-147l398 700h128l101 -700h-127zM545 805l-264 -72l12 54l264 72z" glyph-name="Aacute"/>
<glyph unicode="Â" d="M398 266l-33 229l-130 -229h163zM415 142h-251l-81 -142h-147l398 700h128l101 -700h-127zM561 733l-137 72l-167 -72l13 58l157 68l145 -77z" glyph-name="Acircumflex"/>
<glyph unicode="Ã" d="M398 266l-33 229l-130 -229h163zM415 142h-251l-81 -142h-147l398 700h128l101 -700h-127zM576 797l-113 -60l-91 66l-124 -66l14 63l113 60l91 -66l124 66z" glyph-name="Atilde"/>
<glyph unicode="Ä" d="M398 266l-33 229l-130 -229h163zM415 142h-251l-81 -142h-147l398 700h128l101 -700h-127zM254 761l17 76h76l-17 -76h-76zM490 761l17 76h76l-17 -76h-76z" glyph-name="Adieresis"/>
<glyph unicode="Å" d="M298 765c0 63 51 115 114 115s115 -52 115 -115c0 -43 -25 -81 -60 -100l96 -665h-127l-21 142h-251l-81 -142h-147l391 688c-18 20 -29 47 -29 77zM398 266l-33 229l-130 -229h163zM347 765c0 -36 29 -66 65 -66s66 30 66 66s-30 66 -66 66s-65 -30 -65 -66z" glyph-name="Aring"/>
<glyph unicode="Æ" d="M490 570l-33 -151h76l-28 -130h-76l-34 -159h146l-27 -130h-280l30 142h-100l-81 -142h-147l398 700h329l-27 -130h-146zM235 266h55l33 156z" glyph-name="AE"/>
<glyph unicode="Ç" d="M614 466h-132c2 12 2 14 2 17c0 63 -41 97 -115 97c-73 0 -130 -45 -148 -126c-5 -23 -48 -211 -48 -237c0 -63 41 -97 115 -97c69 0 124 41 145 114h135c-34 -147 -106 -244 -297 -244c-150 0 -232 95 -232 204c0 49 37 211 47 257c33 155 102 259 300 259 c150 0 232 -95 232 -204c0 -10 -1 -24 -4 -40zM117 -134h84l18 84h50l-29 -134h-134z" glyph-name="Ccedilla"/>
<glyph unicode="È" d="M301 570l-32 -151h223l-28 -130h-223l-34 -159h292l-27 -130h-425l148 700h425l-28 -130h-291zM556 739l-264 72l10 48l264 -72z" glyph-name="Egrave"/>
<glyph unicode="É" d="M301 570l-32 -151h223l-28 -130h-223l-34 -159h292l-27 -130h-425l148 700h425l-28 -130h-291zM556 805l-264 -72l12 54l264 72z" glyph-name="Eacute"/>
<glyph unicode="Ê" d="M301 570l-32 -151h223l-28 -130h-223l-34 -159h292l-27 -130h-425l148 700h425l-28 -130h-291zM571 733l-137 72l-167 -72l13 58l157 68l145 -77z" glyph-name="Ecircumflex"/>
<glyph unicode="Ë" d="M301 570l-32 -151h223l-28 -130h-223l-34 -159h292l-27 -130h-425l148 700h425l-28 -130h-291zM265 761l17 76h76l-17 -76h-76zM501 761l17 76h76l-17 -76h-76z" glyph-name="Edieresis"/>
<glyph unicode="Ì" d="M462 0h-426l28 130h145l93 440h-145l27 130h427l-28 -130h-148l-93 -440h148zM545 739l-264 72l10 48l264 -72z" glyph-name="Igrave"/>
<glyph unicode="Í" d="M462 0h-426l28 130h145l93 440h-145l27 130h427l-28 -130h-148l-93 -440h148zM544 805l-264 -72l12 54l264 72z" glyph-name="Iacute"/>
<glyph unicode="Î" d="M462 0h-426l28 130h145l93 440h-145l27 130h427l-28 -130h-148l-93 -440h148zM560 733l-137 72l-167 -72l13 58l157 68l145 -77z" glyph-name="Icircumflex"/>
<glyph unicode="Ï" d="M462 0h-426l28 130h145l93 440h-145l27 130h427l-28 -130h-148l-93 -440h148zM254 761l17 76h76l-17 -76h-76zM490 761l17 76h76l-17 -76h-76z" glyph-name="Idieresis"/>
<glyph unicode="Ð" d="M285 0h-282l69 328h-69l9 45h70l69 327h245c150 0 232 -95 232 -204c0 -49 -33 -191 -43 -237c-33 -155 -102 -259 -300 -259zM163 130h139c73 0 130 45 148 126c5 23 44 191 44 217c0 63 -41 97 -115 97h-122l-42 -197h130l-9 -45h-131z" glyph-name="Eth"/>
<glyph unicode="Ñ" d="M663 700l-149 -700h-134l-159 475l-101 -475h-133l148 700h134l159 -475l101 475h134zM575 797l-113 -60l-91 66l-124 -66l14 63l113 60l91 -66l124 66z" glyph-name="Ntilde"/>
<glyph unicode="Ò" d="M81 451c33 155 102 259 300 259c150 0 232 -95 232 -204c0 -49 -37 -211 -47 -257c-33 -155 -102 -259 -300 -259c-150 0 -232 95 -232 204c0 49 37 211 47 257zM216 454c-5 -23 -48 -211 -48 -237c0 -63 41 -97 115 -97c73 0 130 45 148 126c5 23 48 211 48 237 c0 63 -41 97 -115 97c-73 0 -130 -45 -148 -126zM545 739l-264 72l10 48l264 -72z" glyph-name="Ograve"/>
<glyph unicode="Ó" d="M81 451c33 155 102 259 300 259c150 0 232 -95 232 -204c0 -49 -37 -211 -47 -257c-33 -155 -102 -259 -300 -259c-150 0 -232 95 -232 204c0 49 37 211 47 257zM216 454c-5 -23 -48 -211 -48 -237c0 -63 41 -97 115 -97c73 0 130 45 148 126c5 23 48 211 48 237 c0 63 -41 97 -115 97c-73 0 -130 -45 -148 -126zM545 805l-264 -72l12 54l264 72z" glyph-name="Oacute"/>
<glyph unicode="Ô" d="M81 451c33 155 102 259 300 259c150 0 232 -95 232 -204c0 -49 -37 -211 -47 -257c-33 -155 -102 -259 -300 -259c-150 0 -232 95 -232 204c0 49 37 211 47 257zM216 454c-5 -23 -48 -211 -48 -237c0 -63 41 -97 115 -97c73 0 130 45 148 126c5 23 48 211 48 237 c0 63 -41 97 -115 97c-73 0 -130 -45 -148 -126zM560 733l-137 72l-167 -72l13 58l157 68l145 -77z" glyph-name="Ocircumflex"/>
<glyph unicode="Õ" d="M81 451c33 155 102 259 300 259c150 0 232 -95 232 -204c0 -49 -37 -211 -47 -257c-33 -155 -102 -259 -300 -259c-150 0 -232 95 -232 204c0 49 37 211 47 257zM216 454c-5 -23 -48 -211 -48 -237c0 -63 41 -97 115 -97c73 0 130 45 148 126c5 23 48 211 48 237 c0 63 -41 97 -115 97c-73 0 -130 -45 -148 -126zM575 797l-113 -60l-91 66l-124 -66l14 63l113 60l91 -66l124 66z" glyph-name="Otilde"/>
<glyph unicode="Ö" d="M81 451c33 155 102 259 300 259c150 0 232 -95 232 -204c0 -49 -37 -211 -47 -257c-33 -155 -102 -259 -300 -259c-150 0 -232 95 -232 204c0 49 37 211 47 257zM216 454c-5 -23 -48 -211 -48 -237c0 -63 41 -97 115 -97c73 0 130 45 148 126c5 23 48 211 48 237 c0 63 -41 97 -115 97c-73 0 -130 -45 -148 -126zM254 761l17 76h76l-17 -76h-76zM490 761l17 76h76l-17 -76h-76z" glyph-name="Odieresis"/>
<glyph unicode="×" d="M481 419l-140 -139l140 -139l-32 -32l-140 139l-139 -139l-32 32l139 139l-139 139l32 32l139 -139l140 139z" glyph-name="multiply"/>
<glyph unicode="Ø" d="M81 451c33 155 102 259 300 259c69 0 124 -21 163 -53l61 76l35 -26l-66 -82c25 -34 39 -75 39 -119c0 -49 -37 -211 -47 -257c-33 -155 -102 -259 -300 -259c-70 0 -125 20 -164 53l-61 -76l-34 26l66 81c-26 34 -39 76 -39 120c0 49 37 211 47 257zM479 483 c0 8 -1 16 -2 23l-287 -355c20 -21 51 -31 93 -31c73 0 130 45 148 126c5 23 48 211 48 237zM216 454c-5 -23 -48 -211 -48 -237c0 -8 0 -16 2 -23l286 354c-20 21 -51 32 -92 32c-73 0 -130 -45 -148 -126z" glyph-name="Oslash"/>
<glyph unicode="Ù" d="M167 217c0 -63 42 -97 116 -97c73 0 131 45 149 126c17 73 96 454 96 454h133s-80 -378 -95 -451c-32 -155 -102 -259 -300 -259c-150 0 -233 95 -233 204c0 49 37 211 100 506h133c-57 -269 -99 -457 -99 -483zM545 739l-264 72l10 48l264 -72z" glyph-name="Ugrave"/>
<glyph unicode="Ú" d="M167 217c0 -63 42 -97 116 -97c73 0 131 45 149 126c17 73 96 454 96 454h133s-80 -378 -95 -451c-32 -155 -102 -259 -300 -259c-150 0 -233 95 -233 204c0 49 37 211 100 506h133c-57 -269 -99 -457 -99 -483zM543 805l-264 -72l12 54l264 72z" glyph-name="Uacute"/>
<glyph unicode="Û" d="M167 217c0 -63 42 -97 116 -97c73 0 131 45 149 126c17 73 96 454 96 454h133s-80 -378 -95 -451c-32 -155 -102 -259 -300 -259c-150 0 -233 95 -233 204c0 49 37 211 100 506h133c-57 -269 -99 -457 -99 -483zM561 733l-137 72l-167 -72l13 58l157 68l145 -77z" glyph-name="Ucircumflex"/>
<glyph unicode="Ü" d="M167 217c0 -63 42 -97 116 -97c73 0 131 45 149 126c17 73 96 454 96 454h133s-80 -378 -95 -451c-32 -155 -102 -259 -300 -259c-150 0 -233 95 -233 204c0 49 37 211 100 506h133c-57 -269 -99 -457 -99 -483zM254 761l17 76h76l-17 -76h-76zM490 761l17 76h76l-17 -76 h-76z" glyph-name="Udieresis"/>
<glyph unicode="Ý" d="M370 255l-54 -255h-134l54 255l-153 445h138l101 -304l230 304h161zM545 805l-264 -72l12 54l264 72z" glyph-name="Yacute"/>
<glyph unicode="Þ" d="M193 240h145c71 0 142 46 142 124c0 47 -33 99 -104 99h-136zM165 110l-23 -110h-133l148 700h134l-23 -107h135c133 0 211 -112 211 -219c0 -169 -110 -264 -297 -264h-152z" glyph-name="Thorn"/>
<glyph unicode="ß" d="M217 -73c83 0 155 86 155 170c0 58 -34 106 -95 106l24 116l70 81h-117l-85 -400h-132l121 568c17 78 80 132 164 132h60l-24 -116h-25c-32 0 -44 -20 -49 -44l-5 -24h272l-24 -116l-108 -123c53 -41 85 -106 85 -159c0 -162 -98 -307 -311 -307z" glyph-name="germandbls"/>
<glyph unicode="à" d="M227 354h-133c36 115 103 176 240 176c124 0 206 -79 206 -195c0 -29 -13 -87 -21 -126l-45 -209h-132l12 53c-28 -39 -71 -63 -135 -63c-102 0 -171 68 -171 148c0 81 42 136 114 160c74 25 153 29 251 34v4c0 40 -23 78 -89 78c-44 0 -78 -23 -97 -60zM213 203 c-26 -11 -38 -25 -38 -51c0 -23 17 -49 72 -49c68 0 126 41 140 106l3 14c-76 -4 -149 -8 -177 -20zM516 585l-264 72l10 48l264 -72z" glyph-name="agrave"/>
<glyph unicode="á" d="M227 354h-133c36 115 103 176 240 176c124 0 206 -79 206 -195c0 -29 -13 -87 -21 -126l-45 -209h-132l12 53c-28 -39 -71 -63 -135 -63c-102 0 -171 68 -171 148c0 81 42 136 114 160c74 25 153 29 251 34v4c0 40 -23 78 -89 78c-44 0 -78 -23 -97 -60zM213 203 c-26 -11 -38 -25 -38 -51c0 -23 17 -49 72 -49c68 0 126 41 140 106l3 14c-76 -4 -149 -8 -177 -20zM515 651l-264 -72l12 54l264 72z" glyph-name="aacute"/>
<glyph unicode="â" d="M227 354h-133c36 115 103 176 240 176c124 0 206 -79 206 -195c0 -29 -13 -87 -21 -126l-45 -209h-132l12 53c-28 -39 -71 -63 -135 -63c-102 0 -171 68 -171 148c0 81 42 136 114 160c74 25 153 29 251 34v4c0 40 -23 78 -89 78c-44 0 -78 -23 -97 -60zM213 203 c-26 -11 -38 -25 -38 -51c0 -23 17 -49 72 -49c68 0 126 41 140 106l3 14c-76 -4 -149 -8 -177 -20zM531 579l-137 72l-167 -72l13 58l157 68l145 -77z" glyph-name="acircumflex"/>
<glyph unicode="ã" d="M227 354h-133c36 115 103 176 240 176c124 0 206 -79 206 -195c0 -29 -13 -87 -21 -126l-45 -209h-132l12 53c-28 -39 -71 -63 -135 -63c-102 0 -171 68 -171 148c0 81 42 136 114 160c74 25 153 29 251 34v4c0 40 -23 78 -89 78c-44 0 -78 -23 -97 -60zM213 203 c-26 -11 -38 -25 -38 -51c0 -23 17 -49 72 -49c68 0 126 41 140 106l3 14c-76 -4 -149 -8 -177 -20zM546 640l-113 -60l-91 66l-124 -66l14 63l113 60l91 -66l124 66z" glyph-name="atilde"/>
<glyph unicode="ä" d="M227 354h-133c36 115 103 176 240 176c124 0 206 -79 206 -195c0 -29 -13 -87 -21 -126l-45 -209h-132l12 53c-28 -39 -71 -63 -135 -63c-102 0 -171 68 -171 148c0 81 42 136 114 160c74 25 153 29 251 34v4c0 40 -23 78 -89 78c-44 0 -78 -23 -97 -60zM213 203 c-26 -11 -38 -25 -38 -51c0 -23 17 -49 72 -49c68 0 126 41 140 106l3 14c-76 -4 -149 -8 -177 -20zM224 607l17 76h76l-17 -76h-76zM460 607l17 76h76l-17 -76h-76z" glyph-name="adieresis"/>
<glyph unicode="å" d="M227 354h-133c36 115 103 176 240 176c124 0 206 -79 206 -195c0 -29 -13 -87 -21 -126l-45 -209h-132l12 53c-28 -39 -71 -63 -135 -63c-102 0 -171 68 -171 148c0 81 42 136 114 160c74 25 153 29 251 34v4c0 40 -23 78 -89 78c-44 0 -78 -23 -97 -60zM213 203 c-26 -11 -38 -25 -38 -51c0 -23 17 -49 72 -49c68 0 126 41 140 106l3 14c-76 -4 -149 -8 -177 -20zM257 595c0 63 51 115 114 115s115 -52 115 -115s-52 -114 -115 -114s-114 51 -114 114zM306 595c0 -36 29 -65 65 -65s66 29 66 65s-30 66 -66 66s-65 -30 -65 -66z" glyph-name="aring"/>
<glyph unicode="æ" d="M11 156c19 114 74 164 189 164h49c7 33 12 56 12 62c0 19 -12 32 -34 32c-26 0 -37 -18 -41 -43l-3 -17h-133c24 124 73 176 185 176c46 0 77 -17 98 -37c23 20 55 37 116 37c88 0 148 -69 148 -140c0 -34 -10 -77 -31 -176h-207c-8 -40 -14 -70 -14 -76 c0 -19 12 -32 34 -32c26 0 37 18 41 43l3 17h133l-3 -12c-30 -118 -75 -164 -182 -164c-46 0 -77 17 -98 37c-23 -20 -55 -37 -116 -37c-88 0 -148 69 -148 140c0 8 0 16 2 26zM213 149c4 21 8 43 13 65h-41c-26 0 -37 -18 -42 -43c-5 -23 -5 -29 -5 -33 c0 -19 12 -32 34 -32c26 0 36 18 41 43zM382 320h74c7 33 12 57 12 62c0 19 -12 32 -34 32c-26 0 -36 -18 -41 -43z" glyph-name="ae"/>
<glyph unicode="ç" d="M549 336v-4h-128v4c0 41 -24 78 -88 78c-58 0 -96 -35 -109 -96c-19 -89 -26 -117 -26 -127c0 -49 22 -85 88 -85c53 0 89 30 105 82h132c-35 -129 -102 -198 -247 -198c-124 0 -206 79 -206 195c0 29 12 88 21 126c33 143 99 219 252 219c124 0 206 -79 206 -194z M116 -134h84l18 84h50l-29 -134h-134z" glyph-name="ccedilla"/>
<glyph unicode="è" d="M525 214h-328c-2 -11 -3 -19 -3 -23c0 -49 22 -85 88 -85c45 0 78 22 97 60h133c-36 -115 -103 -176 -240 -176c-124 0 -206 79 -206 195c0 29 12 88 21 126c33 143 99 219 252 219c124 0 206 -79 206 -195c0 -28 -11 -84 -20 -121zM417 320v9c0 49 -22 85 -88 85 c-57 0 -95 -36 -109 -94h197zM514 585l-264 72l10 48l264 -72z" glyph-name="egrave"/>
<glyph unicode="é" d="M525 214h-328c-2 -11 -3 -19 -3 -23c0 -49 22 -85 88 -85c45 0 78 22 97 60h133c-36 -115 -103 -176 -240 -176c-124 0 -206 79 -206 195c0 29 12 88 21 126c33 143 99 219 252 219c124 0 206 -79 206 -195c0 -28 -11 -84 -20 -121zM417 320v9c0 49 -22 85 -88 85 c-57 0 -95 -36 -109 -94h197zM514 651l-264 -72l12 54l264 72z" glyph-name="eacute"/>
<glyph unicode="ê" d="M525 214h-328c-2 -11 -3 -19 -3 -23c0 -49 22 -85 88 -85c45 0 78 22 97 60h133c-36 -115 -103 -176 -240 -176c-124 0 -206 79 -206 195c0 29 12 88 21 126c33 143 99 219 252 219c124 0 206 -79 206 -195c0 -28 -11 -84 -20 -121zM417 320v9c0 49 -22 85 -88 85 c-57 0 -95 -36 -109 -94h197zM530 579l-137 72l-167 -72l13 58l157 68l145 -77z" glyph-name="ecircumflex"/>
<glyph unicode="ë" d="M525 214h-328c-2 -11 -3 -19 -3 -23c0 -49 22 -85 88 -85c45 0 78 22 97 60h133c-36 -115 -103 -176 -240 -176c-124 0 -206 79 -206 195c0 29 12 88 21 126c33 143 99 219 252 219c124 0 206 -79 206 -195c0 -28 -11 -84 -20 -121zM417 320v9c0 49 -22 85 -88 85 c-57 0 -95 -36 -109 -94h197zM223 607l17 76h76l-17 -76h-76zM459 607l17 76h76l-17 -76h-76z" glyph-name="edieresis"/>
<glyph unicode="ì" d="M499 0h-495l24 116h181l61 284h-132l25 116h263l-85 -400h182zM514 585l-264 72l10 48l264 -72z" glyph-name="igrave"/>
<glyph unicode="í" d="M499 0h-495l24 116h181l61 284h-132l25 116h263l-85 -400h182zM514 651l-264 -72l12 54l264 72z" glyph-name="iacute"/>
<glyph unicode="î" d="M499 0h-495l24 116h181l61 284h-132l25 116h263l-85 -400h182zM530 579l-137 72l-167 -72l13 58l157 68l145 -77z" glyph-name="icircumflex"/>
<glyph unicode="ï" d="M499 0h-495l24 116h181l61 284h-132l25 116h263l-85 -400h182zM222 607l17 76h76l-17 -76h-76zM458 607l17 76h76l-17 -76h-76z" glyph-name="idieresis"/>
<glyph unicode="ð" d="M504 585h-63l69 -134c17 -34 34 -61 34 -116c0 -29 -12 -88 -21 -126c-33 -143 -99 -219 -252 -219c-124 0 -206 79 -206 195c0 29 12 88 21 126c32 138 94 214 239 219l-29 55h-127l9 43h96l-37 72h145l37 -72h94zM219 318c-9 -40 -26 -115 -26 -133 c0 -44 25 -79 88 -79c58 0 96 35 109 96c9 40 26 115 26 133c0 44 -25 79 -88 79c-58 0 -95 -35 -109 -96z" glyph-name="eth"/>
<glyph unicode="ñ" d="M544 640l-113 -60l-91 66l-124 -66l14 63l113 60l91 -66l124 66zM523 199l-43 -199h-132l44 205c19 89 25 111 25 121c0 49 -22 85 -88 85c-58 0 -96 -35 -109 -96l-68 -315h-132l110 516h132l-11 -49c12 22 52 63 119 63c129 0 174 -103 174 -194 c0 -33 -12 -97 -21 -137z" glyph-name="ntilde"/>
<glyph unicode="ò" d="M523 209c-33 -143 -99 -219 -252 -219c-124 0 -206 79 -206 195c0 29 12 88 21 126c33 143 99 219 252 219c124 0 206 -79 206 -195c0 -29 -12 -88 -21 -126zM219 318c-9 -40 -26 -115 -26 -133c0 -44 25 -79 88 -79c58 0 96 35 109 96c9 40 26 115 26 133 c0 44 -25 79 -88 79c-58 0 -95 -35 -109 -96zM513 585l-264 72l10 48l264 -72z" glyph-name="ograve"/>
<glyph unicode="ó" d="M523 209c-33 -143 -99 -219 -252 -219c-124 0 -206 79 -206 195c0 29 12 88 21 126c33 143 99 219 252 219c124 0 206 -79 206 -195c0 -29 -12 -88 -21 -126zM219 318c-9 -40 -26 -115 -26 -133c0 -44 25 -79 88 -79c58 0 96 35 109 96c9 40 26 115 26 133 c0 44 -25 79 -88 79c-58 0 -95 -35 -109 -96zM512 651l-264 -72l12 54l264 72z" glyph-name="oacute"/>
<glyph unicode="ô" d="M523 209c-33 -143 -99 -219 -252 -219c-124 0 -206 79 -206 195c0 29 12 88 21 126c33 143 99 219 252 219c124 0 206 -79 206 -195c0 -29 -12 -88 -21 -126zM219 318c-9 -40 -26 -115 -26 -133c0 -44 25 -79 88 -79c58 0 96 35 109 96c9 40 26 115 26 133 c0 44 -25 79 -88 79c-58 0 -95 -35 -109 -96zM529 579l-137 72l-167 -72l13 58l157 68l145 -77z" glyph-name="ocircumflex"/>
<glyph unicode="õ" d="M544 640l-113 -60l-91 66l-124 -66l14 63l113 60l91 -66l124 66zM523 209c-33 -143 -99 -219 -252 -219c-124 0 -206 79 -206 195c0 29 12 88 21 126c33 143 99 219 252 219c124 0 206 -79 206 -195c0 -29 -12 -88 -21 -126zM219 318c-9 -40 -26 -115 -26 -133 c0 -44 25 -79 88 -79c58 0 96 35 109 96c9 40 26 115 26 133c0 44 -25 79 -88 79c-58 0 -95 -35 -109 -96z" glyph-name="otilde"/>
<glyph unicode="ö" d="M523 209c-33 -143 -99 -219 -252 -219c-124 0 -206 79 -206 195c0 29 12 88 21 126c33 143 99 219 252 219c124 0 206 -79 206 -195c0 -29 -12 -88 -21 -126zM219 318c-9 -40 -26 -115 -26 -133c0 -44 25 -79 88 -79c58 0 96 35 109 96c9 40 26 115 26 133 c0 44 -25 79 -88 79c-58 0 -95 -35 -109 -96zM222 607l17 76h76l-17 -76h-76zM458 607l17 76h76l-17 -76h-76z" glyph-name="odieresis"/>
<glyph unicode="÷" d="M267 479c0 23 19 42 42 42s42 -19 42 -42s-19 -42 -42 -42s-42 19 -42 42zM267 82c0 23 19 42 42 42s42 -19 42 -42s-19 -42 -42 -42s-42 19 -42 42zM507 258h-396v45h396v-45z" glyph-name="divide"/>
<glyph unicode="ø" d="M59 -6l50 62c-28 33 -44 78 -44 129c0 29 12 88 21 126c33 143 99 219 252 219c50 0 93 -13 126 -36l48 59l36 -27l-50 -61c30 -34 46 -78 46 -130c0 -29 -12 -88 -21 -126c-33 -143 -99 -219 -252 -219c-51 0 -94 13 -128 36l-48 -59zM416 335c0 8 -1 17 -3 24 l-192 -237c14 -10 33 -16 60 -16c58 0 96 35 109 96c9 40 26 115 26 133zM219 318c-9 -40 -26 -115 -26 -133c0 -8 1 -16 2 -23l191 236c-14 10 -33 16 -58 16c-58 0 -95 -35 -109 -96z" glyph-name="oslash"/>
<glyph unicode="ù" d="M281 109c54 0 92 36 105 96l67 311h132l-110 -516h-132l12 53c-10 -19 -54 -63 -119 -63c-116 0 -169 97 -169 189c0 35 10 92 19 132l44 205h132l-43 -201c-11 -49 -24 -108 -24 -121c0 -48 22 -85 86 -85zM513 585l-264 72l10 48l264 -72z" glyph-name="ugrave"/>
<glyph unicode="ú" d="M281 109c54 0 92 36 105 96l67 311h132l-110 -516h-132l12 53c-10 -19 -54 -63 -119 -63c-116 0 -169 97 -169 189c0 35 10 92 19 132l44 205h132l-43 -201c-11 -49 -24 -108 -24 -121c0 -48 22 -85 86 -85zM511 651l-264 -72l12 54l264 72z" glyph-name="uacute"/>
<glyph unicode="û" d="M281 109c54 0 92 36 105 96l67 311h132l-110 -516h-132l12 53c-10 -19 -54 -63 -119 -63c-116 0 -169 97 -169 189c0 35 10 92 19 132l44 205h132l-43 -201c-11 -49 -24 -108 -24 -121c0 -48 22 -85 86 -85zM528 579l-137 72l-167 -72l13 58l157 68l145 -77z" glyph-name="ucircumflex"/>
<glyph unicode="ü" d="M281 109c54 0 92 36 105 96l67 311h132l-110 -516h-132l12 53c-10 -19 -54 -63 -119 -63c-116 0 -169 97 -169 189c0 35 10 92 19 132l44 205h132l-43 -201c-11 -49 -24 -108 -24 -121c0 -48 22 -85 86 -85zM220 607l17 76h76l-17 -76h-76zM456 607l17 76h76l-17 -76h-76 z" glyph-name="udieresis"/>
<glyph unicode="ý" d="M180 4l-76 512h132l43 -325l182 325h151l-323 -565c-45 -78 -65 -135 -157 -135h-109l23 116h67c24 0 34 12 40 23zM511 651l-264 -72l12 54l264 72z" glyph-name="yacute"/>
<glyph unicode="þ" d="M304 700l-49 -233c12 22 51 63 118 63c119 0 174 -103 174 -194c0 -33 -13 -97 -21 -137c-30 -143 -99 -209 -220 -209c-68 0 -114 31 -136 74l-53 -248h-132l187 884h132zM223 315c-19 -89 -24 -111 -24 -121c0 -49 22 -85 88 -85c58 0 96 35 109 96 c19 89 24 111 24 121c0 49 -22 85 -88 85c-58 0 -96 -35 -109 -96z" glyph-name="thorn"/>
</font>
</defs>
</svg>
