<svg id="Ebene_1" data-name="Ebene 1" xmlns="http://www.w3.org/2000/svg" viewBox="0 0 425.65 153"><title>cda_logo</title><rect x="155.17" y="40.02" width="267.2" height="3.21" style="fill:#1d1d1b"/><rect x="155.17" y="94.91" width="267.2" height="3.21" style="fill:#1d1d1b"/><rect x="155.17" y="149.79" width="267.2" height="3.21" style="fill:#1d1d1b"/><rect y="94.91" width="101.79" height="3.21" style="fill:#1d1d1b"/><polygon points="3.83 70.41 15.38 70.41 15.38 67.12 3.83 67.12 3.83 58.62 17.25 58.62 17.25 55.38 0 55.38 0 82.8 3.83 82.8 3.83 70.41" style="fill:#1d1d1b"/><path d="M34.06,83.29c8.3,0,12.38-5.7,12.38-14.2S42.36,54.88,34.06,54.88s-12.39,5.7-12.39,14.21S25.75,83.29,34.06,83.29Zm0-25.06c6.73,0,8.45,5.5,8.45,10.86S40.79,80,34.06,80,25.6,74.44,25.6,69.09,27.28,58.23,34.06,58.23Z" style="fill:#1d1d1b"/><path d="M57.4,72.58h5.21L70.17,82.8h4.67l-8.2-10.86c4-.94,6.53-3.49,6.53-8,0-5.79-4-8.59-11.05-8.59H53.57V82.8H57.4Zm0-14H62c5.45,0,7.22,1.77,7.22,5.35S67.37,69.33,62,69.33H57.4Z" style="fill:#1d1d1b"/><polygon points="415.67 82.8 415.67 71.84 425.65 55.38 421.52 55.38 413.81 68.5 406.14 55.38 401.87 55.38 411.84 71.84 411.84 82.8 415.67 82.8" style="fill:#1d1d1b"/><path d="M196.22,58.23c4.56,0,6.92,2.7,7.17,5.79h3.83c-.39-5.84-4.91-9.14-11.1-9.14-8,0-11.94,5.7-11.94,14.2s3.93,14.21,11.94,14.21c6.19,0,10.71-3.29,11.1-9.14h-3.83c-.25,3.09-2.61,5.8-7.17,5.8-6.54,0-8.11-5.46-8.11-10.87S189.68,58.23,196.22,58.23Z" style="fill:#1d1d1b"/><path d="M355.53,76.41h12.18L370,82.8h4.08L363.73,55.38h-4.08L349.33,82.8h3.94Zm6.09-17.15,5,14.1h-10Z" style="fill:#1d1d1b"/><path d="M399.31,64c0-5.8-4-8.6-11.06-8.6H379.7V82.8h3.84V72.57h5.2l7.57,10.23H401l-8.21-10.86C396.8,71,399.31,68.45,399.31,64Zm-11.15,5.35h-4.62V58.62h4.62c5.45,0,7.22,1.77,7.22,5.36S393.51,69.33,388.16,69.33Z" style="fill:#1d1d1b"/><polygon points="306.78 55.38 302.11 55.38 302.11 82.8 305.75 82.8 305.75 60.39 318.67 82.8 323.34 82.8 323.34 55.38 319.7 55.38 319.7 77.78 306.78 55.38" style="fill:#1d1d1b"/><polygon points="294.99 58.62 294.99 55.38 276.71 55.38 276.71 82.8 294.99 82.8 294.99 79.55 280.54 79.55 280.54 70.36 292.53 70.36 292.53 67.12 280.54 67.12 280.54 58.62 294.99 58.62" style="fill:#1d1d1b"/><polygon points="268.11 82.8 268.11 55.38 263.49 55.38 255.63 70.71 247.86 55.38 243 55.38 243 82.8 246.63 82.8 246.63 60.39 254.15 75.08 256.95 75.08 264.47 60.39 264.47 82.8 268.11 82.8" style="fill:#1d1d1b"/><path d="M213.66,55.38V73.11c0,7.13,4,10.18,10.61,10.18s10.62-3.05,10.62-10.18V55.38h-3.84v17.1c0,5.5-2.16,7.47-6.78,7.47s-6.78-2-6.78-7.47V55.38Z" style="fill:#1d1d1b"/><polygon points="340.83 82.8 340.83 58.67 349.34 58.67 349.34 55.38 328.5 55.38 328.5 58.67 337 58.67 337 82.8 340.83 82.8" style="fill:#1d1d1b"/><path d="M166.14,83.29c8.31,0,12.38-5.7,12.38-14.21s-4.07-14.2-12.38-14.2-12.38,5.7-12.38,14.2S157.84,83.29,166.14,83.29Zm0-25.06c6.73,0,8.45,5.5,8.45,10.85S172.87,80,166.14,80s-8.45-5.51-8.45-10.87S159.36,58.23,166.14,58.23Z" style="fill:#1d1d1b"/><path d="M127.91,55.38h-8.6V82.8h8.6c9,0,13.17-5.51,13.17-13.71S137,55.38,127.91,55.38ZM128,79.55h-4.86V58.62H128c7.33,0,9.15,5.31,9.15,10.47S135.33,79.55,128,79.55Z" style="fill:#1d1d1b"/><polygon points="184.23 5.5 197.15 27.91 201.82 27.91 201.82 0.49 198.19 0.49 198.19 22.9 185.26 0.49 180.59 0.49 180.59 27.91 184.23 27.91 184.23 5.5" style="fill:#1d1d1b"/><polygon points="173.47 24.67 159.02 24.67 159.02 15.48 171.01 15.48 171.01 12.24 159.02 12.24 159.02 3.73 173.47 3.73 173.47 0.49 155.19 0.49 155.19 27.91 173.47 27.91 173.47 24.67" style="fill:#1d1d1b"/><polygon points="278.68 24.67 264.23 24.67 264.23 15.48 276.22 15.48 276.22 12.24 264.23 12.24 264.23 3.73 278.68 3.73 278.68 0.49 260.4 0.49 260.4 27.91 278.68 27.91 278.68 24.67" style="fill:#1d1d1b"/><path d="M236.81,17.69H242l7.57,10.22h4.66l-8.2-10.86c4-.93,6.53-3.49,6.53-8,0-5.8-4-8.6-11.05-8.6H233V27.91h3.83Zm0-14h4.62c5.45,0,7.22,1.77,7.22,5.36s-1.87,5.36-7.22,5.36h-4.62Z" style="fill:#1d1d1b"/><polygon points="215.48 27.91 219.32 27.91 219.32 3.78 227.82 3.78 227.82 0.49 206.98 0.49 206.98 3.78 215.48 3.78 215.48 27.91" style="fill:#1d1d1b"/><path d="M129.13,28.4c6.19,0,10.71-3.29,11.1-9.14H136.4c-.25,3.1-2.61,5.8-7.18,5.8-6.53,0-8.1-5.45-8.1-10.86s1.57-10.86,8.1-10.86c4.57,0,6.93,2.7,7.18,5.8h3.83C139.84,3.29,135.32,0,129.13,0c-8,0-11.95,5.7-11.95,14.2S121.12,28.4,129.13,28.4Z" style="fill:#1d1d1b"/><polygon points="292.09 113.5 292.09 110.26 273.81 110.26 273.81 137.68 292.09 137.68 292.09 134.44 277.64 134.44 277.64 125.25 289.63 125.25 289.63 122 277.64 122 277.64 113.5 292.09 113.5" style="fill:#1d1d1b"/><path d="M309,113.11c4.57,0,6.93,2.7,7.18,5.8h3.83c-.39-5.85-4.91-9.14-11.1-9.14-8,0-11.94,5.7-11.94,14.2s3.93,14.2,11.94,14.2c6.19,0,10.71-3.29,11.1-9.14h-3.83c-.25,3.1-2.61,5.8-7.18,5.8-6.53,0-8.1-5.45-8.1-10.86S302.51,113.11,309,113.11Z" style="fill:#1d1d1b"/><polygon points="260.15 137.68 260.15 113.55 268.65 113.55 268.65 110.26 247.82 110.26 247.82 113.55 256.32 113.55 256.32 137.68 260.15 137.68" style="fill:#1d1d1b"/><polygon points="334.65 137.68 334.65 113.55 343.15 113.55 343.15 110.26 322.31 110.26 322.31 113.55 330.81 113.55 330.81 137.68 334.65 137.68" style="fill:#1d1d1b"/><path d="M396.27,118.86c0-5.8-4-8.6-11.06-8.6h-8.55v27.42h3.83V127.46h5.21l7.57,10.22h4.67l-8.21-10.86C393.76,125.89,396.27,123.33,396.27,118.86Zm-11.16,5.36h-4.62V113.5h4.62c5.46,0,7.23,1.77,7.23,5.36S390.47,124.22,385.11,124.22Z" style="fill:#1d1d1b"/><path d="M347.32,110.26V128c0,7.12,4,10.17,10.62,10.17s10.61-3,10.61-10.17V110.26h-3.83v17.1c0,5.5-2.16,7.47-6.78,7.47s-6.78-2-6.78-7.47v-17.1Z" style="fill:#1d1d1b"/><polygon points="422.36 113.5 422.36 110.26 404.08 110.26 404.08 137.68 422.36 137.68 422.36 134.44 407.91 134.44 407.91 125.25 419.9 125.25 419.9 122 407.91 122 407.91 113.5 422.36 113.5" style="fill:#1d1d1b"/><path d="M192.68,113.11c4.57,0,6.93,2.7,7.18,5.8h3.83c-.39-5.85-4.91-9.14-11.11-9.14-8,0-11.94,5.7-11.94,14.2s3.93,14.2,11.94,14.2c6.2,0,10.72-3.29,11.11-9.14h-3.83c-.25,3.1-2.61,5.8-7.18,5.8-6.53,0-8.11-5.45-8.11-10.86S186.15,113.11,192.68,113.11Z" style="fill:#1d1d1b"/><path d="M174.8,118.86c0-5.8-4-8.6-11.06-8.6h-8.55v27.42H159V127.46h5.21l7.57,10.22h4.67l-8.21-10.86C172.29,125.89,174.8,123.33,174.8,118.86Zm-11.16,5.36H159V113.5h4.62c5.45,0,7.22,1.77,7.22,5.36S169,124.22,163.64,124.22Z" style="fill:#1d1d1b"/><rect x="239.71" y="110.26" width="3.83" height="27.42" style="fill:#1d1d1b"/><polygon points="210.62 110.26 210.62 137.68 214.45 137.68 214.45 125.3 227.91 125.3 227.91 137.68 231.75 137.68 231.75 110.26 227.91 110.26 227.91 122 214.45 122 214.45 110.26 210.62 110.26" style="fill:#1d1d1b"/><path d="M126.45,110.26l-10.32,27.42h3.93l2.26-6.39h12.19l2.26,6.39h4.07l-10.31-27.42Zm-3,18,5-14.1,5,14.1Z" style="fill:#1d1d1b"/></svg>