<svg id="Ebene_1" data-name="Ebene 1" xmlns="http://www.w3.org/2000/svg" viewBox="0 0 504.9 153"><title>uni-weimar-100-logo</title><path d="M425.29,127.62v-19h7.38v-4.51H419.52v23.54h5.77M504.9,143H251.59V81.5H504.9v-10H251.59V10H504.9V0H0V10H241.58V143H0v10H504.9Zm-99-25.57v.92a5.81,5.81,0,0,1-1.28,3.79,4.25,4.25,0,0,1-3.48,1.56,5.21,5.21,0,0,1-2.5-.53,1.7,1.7,0,0,1-1-1.59v-2a1.36,1.36,0,0,1,1.3-1.53Zm0-5.93V113l-6.52.55a8.7,8.7,0,0,0-5.73,2.41,6.9,6.9,0,0,0-2,4.94,7.46,7.46,0,0,0,.55,2.93,6.65,6.65,0,0,0,1.57,2.27,7.43,7.43,0,0,0,2.35,1.52,7.93,7.93,0,0,0,3,.54,7.72,7.72,0,0,0,4.41-1.14,8.32,8.32,0,0,0,2.69-3.08h.2l.05,3.65h9.09v-4.48h-4V111.59a7.39,7.39,0,0,0-2.46-6,10.12,10.12,0,0,0-6.7-2,14.35,14.35,0,0,0-3.92.51,9.43,9.43,0,0,0-3.11,1.47,7.46,7.46,0,0,0-2.1,2.43,7.32,7.32,0,0,0-.83,3.39h5.77a2.93,2.93,0,0,1,1.11-2.47,4.59,4.59,0,0,1,2.86-.85,4.09,4.09,0,0,1,2.7.83A3.29,3.29,0,0,1,405.86,111.5Zm-47.22,16.12V114a6.53,6.53,0,0,1,1.26-4.18,4.06,4.06,0,0,1,3.34-1.59h.05q3.33,0,3.33,4.38v15h5.77V114a6.48,6.48,0,0,1,1.28-4.18,4.08,4.08,0,0,1,3.35-1.59h0q3.31,0,3.32,4.38v15h5.77V112.2a10.06,10.06,0,0,0-1.82-6.37,6.46,6.46,0,0,0-5.42-2.31,7.57,7.57,0,0,0-7.17,4.39,6.63,6.63,0,0,0-2.42-3.25,7.17,7.17,0,0,0-4.19-1.14,7,7,0,0,0-3.91,1,8,8,0,0,0-2.58,2.94v-3.41h-5.77v23.54ZM339.9,101.35h6V96.21h-6Zm.09,26.27h5.78V104.08H340Zm-20.92-14.4v-.84a4.1,4.1,0,0,1,1.31-3.16,5.1,5.1,0,0,1,6.62,0,4.1,4.1,0,0,1,1.31,3.16v.84Zm0,6V117.7h15.15v-2.91a13.38,13.38,0,0,0-.73-4.49,10.3,10.3,0,0,0-2.12-3.57,10.06,10.06,0,0,0-3.35-2.36,10.7,10.7,0,0,0-4.34-.85,10.47,10.47,0,0,0-4.35.88,9.45,9.45,0,0,0-3.34,2.49,11.39,11.39,0,0,0-2.15,3.88,15.41,15.41,0,0,0-.77,5,16.7,16.7,0,0,0,.72,5,11.37,11.37,0,0,0,2.08,3.9,9.38,9.38,0,0,0,3.34,2.52,10.47,10.47,0,0,0,4.47.91,11,11,0,0,0,7.05-2.18,9.09,9.09,0,0,0,3.31-6.1h-5.77a4.14,4.14,0,0,1-1.43,2.8,4.68,4.68,0,0,1-3.09,1,5,5,0,0,1-3.29-1.16A4,4,0,0,1,319.07,119.26Zm-23.77,8.36h8.16l7.62-31.41h-6.6l-5,24.94h-.18l-4.71-24.94h-8.16l-4.71,24.94h-.18l-4.85-24.94H270l7.63,31.41h8L290.37,103h.27ZM443.5,41a2.5,2.5,0,0,1,.24-3.67,4.08,4.08,0,0,1,2.43-.67,3.73,3.73,0,0,1,2.5.82A3.33,3.33,0,0,1,449.73,40h5.77a7.31,7.31,0,0,0-2.75-5.86,10.64,10.64,0,0,0-6.58-1.94,12.36,12.36,0,0,0-3.86.55,8.67,8.67,0,0,0-2.86,1.53A6.51,6.51,0,0,0,437,39.35q0,5.46,5.92,6.75L447,47a8.84,8.84,0,0,1,2.55.91,2,2,0,0,1,1,1.86,2.07,2.07,0,0,1-1.17,2,6.06,6.06,0,0,1-2.85.62c-2.59,0-4-1.19-4.26-3.56h-5.77a7.73,7.73,0,0,0,2.75,6c1.72,1.39,4.14,2.09,7.28,2.09a13.7,13.7,0,0,0,4.18-.59,9.5,9.5,0,0,0,3.06-1.58,6.78,6.78,0,0,0,1.9-2.32,6.95,6.95,0,0,0,.16-5.5,5.9,5.9,0,0,0-1.33-1.92,6.92,6.92,0,0,0-2-1.31,12.79,12.79,0,0,0-2.48-.78l-4.67-1A4.17,4.17,0,0,1,443.5,41Zm-18.37-8.27V46.34a6.27,6.27,0,0,1-1.35,4.18,4.63,4.63,0,0,1-3.7,1.6A3.3,3.3,0,0,1,417.19,51a5.63,5.63,0,0,1-.81-3.24v-15h-5.77V48.15a9.78,9.78,0,0,0,1.89,6.39,7,7,0,0,0,5.69,2.29,7.91,7.91,0,0,0,4.19-1,7.66,7.66,0,0,0,2.75-3v3.42h5.77V32.72ZM397.19,46.07V47a5.8,5.8,0,0,1-1.27,3.79,4.25,4.25,0,0,1-3.48,1.56,5.25,5.25,0,0,1-2.51-.53,1.71,1.71,0,0,1-1-1.58v-2a1.37,1.37,0,0,1,1.31-1.53Zm0-5.93v1.54l-6.51.54A8.72,8.72,0,0,0,385,44.63a6.9,6.9,0,0,0-2,4.94,7.43,7.43,0,0,0,.55,2.93,6.91,6.91,0,0,0,1.56,2.28,7.56,7.56,0,0,0,2.36,1.51,7.89,7.89,0,0,0,3,.54,7.76,7.76,0,0,0,4.41-1.14,8.41,8.41,0,0,0,2.69-3.08h.2l.05,3.65h9.08V51.78h-4V40.23a7.4,7.4,0,0,0-2.45-6,10.12,10.12,0,0,0-6.7-2.05,14.35,14.35,0,0,0-3.92.51,9.79,9.79,0,0,0-3.12,1.47A7.23,7.23,0,0,0,383.75,40h5.78a3,3,0,0,1,1.1-2.47,4.61,4.61,0,0,1,2.87-.84,4.09,4.09,0,0,1,2.7.82A3.29,3.29,0,0,1,397.19,40.14ZM362.81,56.26V42.65a6.25,6.25,0,0,1,1.34-4.19,4.61,4.61,0,0,1,3.73-1.59A3.5,3.5,0,0,1,370.83,38a5.21,5.21,0,0,1,.88,3.23v15h5.78V40.84a9.85,9.85,0,0,0-1.88-6.37q-1.86-2.31-5.84-2.31a8,8,0,0,0-4.2,1,7.72,7.72,0,0,0-2.76,2.93V24.86H357v31.4ZM344.16,32.72V46.34a6.27,6.27,0,0,1-1.35,4.18,4.63,4.63,0,0,1-3.7,1.6A3.3,3.3,0,0,1,336.22,51a5.63,5.63,0,0,1-.81-3.24v-15h-5.77V48.15a9.78,9.78,0,0,0,1.89,6.39,7,7,0,0,0,5.68,2.29,7.92,7.92,0,0,0,4.2-1,7.66,7.66,0,0,0,2.75-3v3.42h5.77V32.72ZM316.22,46.07V47A5.8,5.8,0,0,1,315,50.78a4.26,4.26,0,0,1-3.49,1.56,5.24,5.24,0,0,1-2.5-.53,1.71,1.71,0,0,1-1-1.58v-2a1.37,1.37,0,0,1,1.31-1.53Zm0-5.93v1.54l-6.51.54A8.72,8.72,0,0,0,304,44.63a6.9,6.9,0,0,0-2,4.94,7.43,7.43,0,0,0,.55,2.93,6.91,6.91,0,0,0,1.56,2.28,7.56,7.56,0,0,0,2.36,1.51,7.89,7.89,0,0,0,3,.54,7.7,7.7,0,0,0,4.4-1.14,8.35,8.35,0,0,0,2.7-3.08h.2l.05,3.65h9.08V51.78h-4V40.23a7.4,7.4,0,0,0-2.45-6,10.12,10.12,0,0,0-6.7-2.05,14.35,14.35,0,0,0-3.92.51,9.69,9.69,0,0,0-3.12,1.47A7.23,7.23,0,0,0,302.78,40h5.78a3,3,0,0,1,1.1-2.47,4.61,4.61,0,0,1,2.87-.84,4.09,4.09,0,0,1,2.7.82A3.29,3.29,0,0,1,316.22,40.14ZM291,48.37a2.81,2.81,0,0,1-.73,2.15,3.19,3.19,0,0,1-2.22.67h-8.5V42.6h8.68c1.85,0,2.77.9,2.77,2.68Zm-.7-13.62a3.45,3.45,0,0,1-.53,2.08,2.48,2.48,0,0,1-2,.7h-8.19V30h8.19c1.71,0,2.56.8,2.56,2.39Zm5.47,7.69a7.56,7.56,0,0,0-4-2.52,7.31,7.31,0,0,0,3.49-2.63,7.52,7.52,0,0,0,1.27-4.47,8.71,8.71,0,0,0-.7-3.67,6.31,6.31,0,0,0-2-2.47,8.33,8.33,0,0,0-3-1.38,16,16,0,0,0-3.91-.44H273.56v31.4h13.62a16.57,16.57,0,0,0,4.14-.48,8.18,8.18,0,0,0,3.18-1.57,7,7,0,0,0,2-2.84,11.23,11.23,0,0,0,.72-4.26A7.18,7.18,0,0,0,295.78,42.44ZM45.06,54.69v54.66H23.47V119H75.85v-9.62H56.12V35.21H45.06v9.86H23.47v9.62Zm49,5.85q0-8.37,4.83-12.94T111.39,43A17.54,17.54,0,0,1,123.9,47.6q4.88,4.57,4.87,12.94v32.8q0,8.35-4.87,12.94a17.54,17.54,0,0,1-12.51,4.57q-7.64,0-12.48-4.57T94.08,93.34ZM87.76,45.78A41.67,41.67,0,0,0,83.1,59.59,105.06,105.06,0,0,0,81.75,77,106.11,106.11,0,0,0,83.1,94.49a41.67,41.67,0,0,0,4.66,13.85,24.36,24.36,0,0,0,9,9.14q5.75,3.36,14.58,3.35T126,117.48a24.58,24.58,0,0,0,9.05-9.14,41,41,0,0,0,4.69-13.81A106.12,106.12,0,0,0,141.1,77a105,105,0,0,0-1.36-17.38,41,41,0,0,0-4.69-13.81A24.28,24.28,0,0,0,126,36.7q-5.75-3.3-14.58-3.29T96.81,36.7A24.13,24.13,0,0,0,87.76,45.78Zm80.15,14.76q0-8.37,4.84-12.94T185.23,43a17.54,17.54,0,0,1,12.51,4.57q4.86,4.57,4.87,12.94v32.8q0,8.35-4.87,12.94a17.54,17.54,0,0,1-12.51,4.57q-7.64,0-12.48-4.57t-4.84-12.94ZM161.6,45.78a41.44,41.44,0,0,0-4.66,13.81A105.06,105.06,0,0,0,155.59,77a106.11,106.11,0,0,0,1.35,17.52,41.44,41.44,0,0,0,4.66,13.85,24.28,24.28,0,0,0,9.05,9.14q5.74,3.36,14.58,3.35t14.61-3.35a24.65,24.65,0,0,0,9-9.14,41.23,41.23,0,0,0,4.69-13.81A106.17,106.17,0,0,0,214.93,77a105.06,105.06,0,0,0-1.35-17.38,41.23,41.23,0,0,0-4.69-13.81,24.35,24.35,0,0,0-9.08-9.08q-5.75-3.3-14.58-3.29T170.65,36.7A24.06,24.06,0,0,0,161.6,45.78Z"/></svg>