<svg id="Ebene_1" data-name="Ebene 1" xmlns="http://www.w3.org/2000/svg" viewBox="0 0 600 153"><title>uni-weimar-logo</title><path d="M98.92,98.5c-3.83,0-6.42,3.83-7,7.3l12.84,0C105,101.92,103.22,98.5,98.92,98.5Z"/><path d="M68.13,57.56c0,2.71,1.71,4.24,4.47,4.24,2.18,0,4.36-1.48,6-3.54l.06-7.36C71.19,52.2,68.13,53.55,68.13,57.56Z"/><path d="M167.12,57.56c0,2.71,1.71,4.24,4.47,4.24,2.18,0,4.36-1.48,6-3.54l.06-7.36C170.18,52.2,167.12,53.55,167.12,57.56Z"/><path d="M415.39,39.6c-3.83,0-6.42,3.83-6.94,7.3l12.83-.06C421.51,43,419.69,39.6,415.39,39.6Z"/><path d="M0,0V153H600V0ZM534.28,24.76h6v6.07h-6Zm-10.07,0h5.95v6.07h-5.95Zm-494.53,0s8.41-.35,10.77-.35c6.06,0,14.66.89,14.66,10.42,0,7.13-5.36,8.66-7.54,9.54,5,.82,8,4.71,8,9.77,0,8.42-7.42,11.72-15.78,11.72-2.7,0-10.42-.24-10.42-.24Zm40.44,99.77H63.29L54.4,96.38A51,51,0,0,1,53,89.67a69.87,69.87,0,0,1-1.47,7l-8.3,27.85H36.45L23.67,84.61,29.85,83l8.3,27.55A62.23,62.23,0,0,1,40,118.64s.82-4.89,1.76-8l8.13-27h6.83l8.53,26.72a58.8,58.8,0,0,1,2,8.31,45.83,45.83,0,0,1,1.83-7.89L77.77,83l5.71,1.3ZM79.2,61.85c-2.18,2.59-5.07,4.42-8.36,4.42-5.53,0-8.71-3.06-8.71-8.6,0-6.77,6.59-8.89,16.6-10.59V44.43c0-3.18-1.41-4.3-3.77-4.3-1.88,0-4.42.65-8.12,4.06l-3-3.35A18.49,18.49,0,0,1,76.67,35.3c4.65,0,8.18,2.83,8.12,8l-.17,15c-.06,2.59.23,3.36,1.82,3.36a4.51,4.51,0,0,0,2.29-.89L90.44,64c-2.65,1.59-4.77,2.3-6.47,2.3C81.38,66.27,79.31,64.86,79.2,61.85ZM110.58,110l-19,.06c-.12,4.77,1.3,10.36,7.36,10.36,2.65,0,4.77-1.18,6.89-3.18L109,120.7c-3.41,3-6.41,4.47-10.89,4.47-7.59,0-13-4-13-15.24,0-8,5.11-15.72,14.24-15.72,8.42,0,11.25,6.12,11.25,14.07C110.64,108.81,110.58,109.46,110.58,110Zm-7-43.71c-6.54,0-8.72-3.95-8.65-8.95L95.09,36h6.18L101,56.09c-.06,3.41,1.59,4.7,4.71,4.7,2.65,0,5.24-1.88,7.47-4.65L113.34,36h6.18l-.23,29.67h-5.83c.06-2,.12-4,.18-4.65C110.87,64,107.69,66.27,103.57,66.27Zm20.77,58.26h-6.06l.23-29.68h6.07Zm.53-34.8h-6.53v-6.3h6.53Zm4.85-68.44h6.19c-.07,6.36.11,12.78-.36,19.13,2.36-2.7,6.3-5.12,10-5.12,5.89,0,8.53,3.36,8.48,9.07l-.18,21.25h-6.18l.12-20.49c0-2.94-1.53-4.35-4.42-4.35s-5.77,2.53-7.65,4.65l-.12,20.19h-6.18Zm46,103.24H169.6l.12-20.67a3.81,3.81,0,0,0-4.06-4.18c-2.77,0-5.42,2.53-7.25,4.71l-.11,20.14h-6.12l.11-20.67a3.84,3.84,0,0,0-4.12-4.18c-2.77,0-5.36,2.41-7.18,4.59l-.12,20.26h-6.12l.17-29.68h5.89c0,1.41-.23,4.53-.23,4.71.35-.35,3.82-5.35,9.65-5.35,3.59,0,6.59,1.7,7.48,5.24,2.35-2.89,6-5.24,9.77-5.24,6.36,0,8.48,4.12,8.42,8.71Zm2.47-62.68c-2.18,2.59-5.07,4.42-8.36,4.42-5.54,0-8.72-3.06-8.72-8.6,0-6.77,6.6-8.89,16.61-10.59V44.43c0-3.18-1.42-4.3-3.77-4.3-1.89,0-4.42.65-8.13,4.06l-3-3.35a18.49,18.49,0,0,1,12.83-5.54c4.66,0,8.19,2.83,8.13,8l-.18,15c-.06,2.59.24,3.36,1.83,3.36a4.6,4.6,0,0,0,2.3-.89l1.7,3.18c-2.65,1.59-4.77,2.3-6.47,2.3C180.37,66.27,178.31,64.86,178.19,61.85Zm26.63,63.32c-2.59,0-4.65-1.41-4.77-4.42-2.18,2.6-5.06,4.42-8.36,4.42-5.53,0-8.71-3.06-8.71-8.59,0-6.77,6.59-8.89,16.6-10.6v-2.65c0-3.18-1.41-4.3-3.76-4.3-1.89,0-4.42.65-8.13,4.06l-3-3.35a18.45,18.45,0,0,1,12.83-5.53c4.65,0,8.19,2.82,8.13,8l-.18,15c-.06,2.6.24,3.36,1.82,3.36a4.45,4.45,0,0,0,2.3-.89l1.71,3.19C208.65,124.46,206.53,125.17,204.82,125.17Zm-2.26-58.9c-6.54,0-8.72-3.95-8.66-8.95L194.08,36h6.18L200,56.09c-.06,3.41,1.59,4.7,4.71,4.7,2.64,0,5.23-1.88,7.47-4.65L212.33,36h6.18l-.24,29.67h-5.82c.06-2,.12-4,.18-4.65C209.86,64,206.68,66.27,202.56,66.27Zm28.28,33.94a9.11,9.11,0,0,0-1.77-.23c-2.35,0-4.88,1.76-6.88,5.71L222,124.53h-6.12l.23-29.68H222s0,3.53-.18,5.77c1.83-3.24,4.13-6.41,8.07-6.41a7.33,7.33,0,0,1,2.29.35ZM247,57.09c0,5.88-5.94,9.18-11.18,9.18a18.31,18.31,0,0,1-9.72-2.47l2.3-4a13.11,13.11,0,0,0,6.89,2.06c2.35,0,5.35-1.35,5.35-4.18,0-6.24-14.07-3-14.07-13.66,0-5.76,5.54-8.71,11.07-8.71,3.3,0,7.12.77,9.54,2.36l-2.36,3.82a14.7,14.7,0,0,0-6.42-1.76c-2.7,0-5.53.82-5.53,3.77C232.83,49.55,247,46.61,247,57.09Zm23.61-4.3H253.49V47.84h17.08Zm41-2.18c-.13,10.42-6.3,15.66-16.43,15.66-10.36,0-15.72-5.24-15.66-15.78l.18-25.72h6.24l-.18,26.43c-.06,6.36,3.3,9.89,9.66,9.89,6.77,0,10.18-4.12,10.3-10.72l.35-25.6h5.83Zm35.44,15h-6.12l.18-20.19c.06-3.42-1.6-4.71-4.71-4.71-2.65,0-5.24,1.88-7.48,4.65l-.18,20.25h-6.12L322.85,36h5.82c-.05,2-.11,3.95-.18,4.59,2.77-3,5.95-5.24,10.08-5.24,6.53,0,8.71,3.89,8.65,8.89Zm16.15,0h-6.07L357.35,36h6.07Zm.53-34.79h-6.54v-6.3h6.54ZM386,65.62h-5.88L369.7,36.89l6-1.64L381,50.61c1.65,4.83,2.53,8.53,2.53,8.53s.82-2.94,2.71-7.88l6.06-16,5.48,1.59Zm41-14.54-19,.06c-.11,4.77,1.3,10.36,7.36,10.36,2.65,0,4.77-1.18,6.89-3.18l3.24,3.47c-3.42,3-6.42,4.48-10.9,4.48-7.59,0-13-3.95-13-15.25,0-8,5.12-15.72,14.24-15.72,8.42,0,11.25,6.12,11.25,14.07C427.11,49.9,427.05,50.55,427.05,51.08Zm22.66-9.77a8.4,8.4,0,0,0-1.77-.24c-2.36,0-4.89,1.77-6.89,5.71l-.18,18.84h-6.12L435,36h5.82s0,3.53-.17,5.77c1.82-3.24,4.12-6.42,8.07-6.42a7.09,7.09,0,0,1,2.29.36Zm25.13,15.78c0,5.88-5.94,9.18-11.18,9.18A18.28,18.28,0,0,1,454,63.8l2.29-4a13.11,13.11,0,0,0,6.89,2.06c2.36,0,5.36-1.35,5.36-4.18,0-6.24-14.07-3-14.07-13.66,0-5.76,5.53-8.71,11.07-8.71,3.29,0,7.12.77,9.53,2.36l-2.35,3.82a14.74,14.74,0,0,0-6.42-1.76c-2.71,0-5.53.82-5.53,3.77C460.72,49.55,474.84,46.61,474.84,57.09Zm14.37,8.53h-6.07L483.38,36h6.06Zm.53-34.79H483.2v-6.3h6.54Zm19.65,35.44c-5.77,0-8.54-2.36-8.48-8.77l.11-17H496.2V36h4.89l.05-10.48h6.12L507.21,36H516v4.59h-8.89l-.06,17.07c0,3.12,1.7,4,3.59,4a8,8,0,0,0,4-1.53l2.18,3.47C514.56,65,512,66.27,509.39,66.27Zm32,0c-2.58,0-4.65-1.41-4.77-4.42-2.17,2.59-5.06,4.42-8.35,4.42-5.54,0-8.72-3.06-8.72-8.6,0-6.77,6.6-8.89,16.6-10.59V44.43c0-3.18-1.41-4.3-3.77-4.3-1.88,0-4.41.65-8.12,4.06l-3-3.35A18.47,18.47,0,0,1,534.1,35.3c4.66,0,8.19,2.83,8.13,8l-.18,15c0,2.59.24,3.36,1.83,3.36a4.54,4.54,0,0,0,2.29-.89L547.88,64C545.23,65.56,543.11,66.27,541.4,66.27Zm20.84,0c-5.77,0-8.53-2.36-8.48-8.77l.12-17h-4.83V36h4.89L554,25.47h6.13L560.06,36h8.83v4.59H560L560,57.61c0,3.12,1.71,4,3.59,4a8,8,0,0,0,4-1.53l2.18,3.47C567.43,65,564.9,66.27,562.24,66.27Z"/><path d="M48.45,35.3c0-6.06-5.64-6.06-8.35-6.06-2.48,0-4.24.12-4.24.12l-.06,13h3.83C45.57,42.31,48.45,39.42,48.45,35.3Z"/><path d="M48.81,54c0-4.71-2.12-6.88-9-6.88H35.74l-.06,13.77S38.39,61,40,61C45,61,48.81,58.56,48.81,54Z"/><path d="M189,116.46c0,2.71,1.71,4.24,4.48,4.24,2.18,0,4.36-1.48,6-3.54l.05-7.35C192.05,111.1,189,112.45,189,116.46Z"/><path d="M525.57,57.56c0,2.7,1.71,4.23,4.47,4.23,2.18,0,4.36-1.47,6-3.53l.06-7.36C528.63,52.2,525.57,53.55,525.57,57.56Z"/></svg>